<svg xmlns="http://www.w3.org/2000/svg" version="1.1" xmlns:xlink="http://www.w3.org/1999/xlink" xmlns:svgjs="http://svgjs.com/svgjs" width="1440" height="560" preserveAspectRatio="none" viewBox="0 0 1440 560"><g mask="url(&quot;#SvgjsMask1957&quot;)" fill="none"><rect width="1440" height="560" x="0" y="0" fill="url(#SvgjsRadialGradient1958)"></rect><path d="M0 0L326.95 0L0 4.33z" fill="rgba(255, 255, 255, .1)"></path><path d="M0 4.33L326.95 0L748.8299999999999 0L0 113.62z" fill="rgba(255, 255, 255, .075)"></path><path d="M0 113.62L748.8299999999999 0L791.9799999999999 0L0 338.6z" fill="rgba(255, 255, 255, .05)"></path><path d="M0 338.6L791.9799999999999 0L987.5099999999999 0L0 382.35z" fill="rgba(255, 255, 255, .025)"></path><path d="M1440 560L852.17 560L1440 370.98z" fill="rgba(0, 0, 0, .1)"></path><path d="M1440 370.98L852.17 560L441.67999999999995 560L1440 343.57z" fill="rgba(0, 0, 0, .075)"></path><path d="M1440 343.57L441.67999999999995 560L298.03999999999996 560L1440 210.25z" fill="rgba(0, 0, 0, .05)"></path><path d="M1440 210.25L298.03999999999996 560L125.85999999999996 560L1440 201.58z" fill="rgba(0, 0, 0, .025)"></path></g><defs><mask id="SvgjsMask1957"><rect width="1440" height="560" fill="#ffffff"></rect></mask><radialGradient cx="100%" cy="100%" r="1545.06" gradientUnits="userSpaceOnUse" id="SvgjsRadialGradient1958"><stop stop-color="#0e2a47" offset="0"></stop><stop stop-color="rgba(72, 175, 245, 0.99)" offset="0"></stop></radialGradient></defs></svg>