<svg xmlns="http://www.w3.org/2000/svg" width="56" height="59" fill="none" style=""><rect id="backgroundrect" width="100%" height="100%" x="0" y="0" fill="none" stroke="none" class="" style=""/>
























































































































































<defs>
<linearGradient id="paint0_linear_0_1" x1="-0.06654699891805649" y1="-0.015409188345074654" x2="1.3457750082015991" y2="3.978269577026367">
<stop stop-color="#09C6F9"/>
<stop offset="1" stop-color="#045DE9"/>
</linearGradient>
<linearGradient id="paint1_linear_0_1" x1="-1.1734251976013184" y1="-0.007460176013410091" x2="0.1507825255393982" y2="1.9260320663452148">
<stop stop-color="#09C6F9"/>
<stop offset="1" stop-color="#045DE9"/>
</linearGradient>
<linearGradient id="paint2_linear_0_1" x1="-1.2515062093734741" y1="-2.3473527431488037" x2="0.1608157604932785" y2="1.6463258266448975">
<stop stop-color="#09C6F9"/>
<stop offset="1" stop-color="#045DE9"/>
</linearGradient>
<linearGradient id="paint3_linear_0_1" x1="-0.000005527320354303811" y1="-0.6205812096595764" x2="1.3242021799087524" y2="1.312911033630371">
<stop stop-color="#09C6F9"/>
<stop offset="1" stop-color="#045DE9"/>
</linearGradient>
<linearGradient id="paint4_linear_0_1" x1="0.000011910007742699236" y1="-0.010817265138030052" x2="1.4266819953918457" y2="2.7958357334136963">
<stop stop-color="#09C6F9"/>
<stop offset="1" stop-color="#045DE9"/>
</linearGradient>
<linearGradient id="paint5_linear_0_1" x1="0.000011910007742699236" y1="-1.3524439334869385" x2="1.4266819953918457" y2="1.4542089700698853">
<stop stop-color="#09C6F9"/>
<stop offset="1" stop-color="#045DE9"/>
</linearGradient>
<linearGradient id="paint6_linear_0_1" x1="-1.3416147232055664" y1="-0.010817265138030052" x2="0.08505532145500183" y2="2.7958357334136963">
<stop stop-color="#09C6F9"/>
<stop offset="1" stop-color="#045DE9"/>
</linearGradient>
<linearGradient id="paint7_linear_0_1" x1="-1.3416147232055664" y1="-1.3524439334869385" x2="0.08505532145500183" y2="1.4542089700698853">
<stop stop-color="#09C6F9"/>
<stop offset="1" stop-color="#045DE9"/>
</linearGradient>
<linearGradient id="paint8_linear_0_1" x1="0.0000050862113312177826" y1="-0.004626683425158262" x2="0.8736623525619507" y2="1.0595905780792236">
<stop stop-color="#09C6F9"/>
<stop offset="1" stop-color="#045DE9"/>
</linearGradient>
<linearGradient id="paint9_linear_0_1" x1="0.0000050862113312177826" y1="-0.004619551356881857" x2="0.6092696189880371" y2="1.1939715147018433">
<stop stop-color="#09C6F9"/>
<stop offset="1" stop-color="#045DE9"/>
</linearGradient>
<linearGradient id="paint10_linear_0_1" x1="0" y1="-0.004622395616024733" x2="0.3765502870082855" y2="1.3122884035110474">
<stop stop-color="#09C6F9"/>
<stop offset="1" stop-color="#045DE9"/>
</linearGradient>
<linearGradient id="paint11_linear_0_1" x1="0" y1="-0.004622395616024733" x2="0.3765502870082855" y2="1.3122884035110474">
<stop stop-color="#09C6F9"/>
<stop offset="1" stop-color="#045DE9"/>
</linearGradient>
<linearGradient id="paint12_linear_0_1" x1="0" y1="-0.0046253204345703125" x2="0.6092815399169922" y2="1.1939678192138672">
<stop stop-color="#09C6F9"/>
<stop offset="1" stop-color="#045DE9"/>
</linearGradient>
<linearGradient id="paint13_linear_0_1" x1="0" y1="-0.0046253204345703125" x2="0.6092815399169922" y2="1.1939678192138672">
<stop stop-color="#09C6F9"/>
<stop offset="1" stop-color="#045DE9"/>
</linearGradient>
<linearGradient id="paint14_linear_0_1" x1="0" y1="-0.0046253204345703125" x2="0.6092815399169922" y2="1.1939678192138672">
<stop stop-color="#09C6F9"/>
<stop offset="1" stop-color="#045DE9"/>
</linearGradient>
<linearGradient id="paint15_linear_0_1" x1="0" y1="-0.0046253204345703125" x2="0.6092815399169922" y2="1.1939678192138672">
<stop stop-color="#09C6F9"/>
<stop offset="1" stop-color="#045DE9"/>
</linearGradient>
<clipPath id="clip0_0_1">
<rect width="544" height="420" fill="white" y="39" x="0" id="svg_1"/>
</clipPath>
</defs>
<g class="currentLayer" style=""><title>Layer 1</title><path d="M16.176362579345664,5.74936448669439 C13.812362579345745,5.194364486694326 11.352362579345709,5.194364486694326 8.988362579345676,5.74936448669439 C5.892362579345672,6.475364486694389 3.475362579345756,8.892364486694305 2.749362579345757,11.988364486694309 C2.194362579345693,14.352364486694341 2.194362579345693,16.812364486694378 2.749362579345757,19.176364486694297 C3.475362579345756,22.2723644866943 5.892362579345672,24.690364486694307 8.988362579345676,25.416364486694306 C11.352362579345709,25.97036448669428 13.812362579345745,25.97036448669428 16.176362579345664,25.416364486694306 C19.272362579345668,24.690364486694307 21.690362579345674,22.2723644866943 22.416362579345673,19.176364486694297 C22.970362579345647,16.812364486694378 22.970362579345647,14.352364486694341 22.416362579345673,11.988364486694309 C21.690362579345674,8.892364486694305 19.272362579345668,6.475364486694389 16.176362579345664,5.74936448669439 z" fill="#FCA311" id="svg_326" class=""/><path d="M16.176362579345664,5.74936448669439 C13.812362579345745,5.194364486694326 11.352362579345709,5.194364486694326 8.988362579345676,5.74936448669439 C5.892362579345672,6.475364486694389 3.475362579345756,8.892364486694305 2.749362579345757,11.988364486694309 C2.194362579345693,14.352364486694341 2.194362579345693,16.812364486694378 2.749362579345757,19.176364486694297 C3.475362579345756,22.2723644866943 5.892362579345672,24.690364486694307 8.988362579345676,25.416364486694306 C11.352362579345709,25.97036448669428 13.812362579345745,25.97036448669428 16.176362579345664,25.416364486694306 C19.272362579345668,24.690364486694307 21.690362579345674,22.2723644866943 22.416362579345673,19.176364486694297 C22.970362579345647,16.812364486694378 22.970362579345647,14.352364486694341 22.416362579345673,11.988364486694309 C21.690362579345674,8.892364486694305 19.272362579345668,6.475364486694389 16.176362579345664,5.74936448669439 z" fill="url(#paint4_linear_0_1)" id="svg_327" class=""/><path d="M16.176362579345664,33.250364486694366 C13.812362579345745,32.69636448669439 11.352362579345709,32.69636448669439 8.988362579345676,33.250364486694366 C5.892362579345672,33.976364486694365 3.475362579345756,36.39436448669437 2.749362579345757,39.490364486694375 C2.194362579345693,41.854364486694294 2.194362579345693,44.31436448669433 2.749362579345757,46.67836448669436 C3.475362579345756,49.77436448669437 5.892362579345672,52.19136448669428 8.988362579345676,52.91736448669428 C11.352362579345709,53.472364486694346 13.812362579345745,53.472364486694346 16.176362579345664,52.91736448669428 C19.272362579345668,52.19136448669428 21.690362579345674,49.77436448669437 22.416362579345673,46.67836448669436 C22.970362579345647,44.31436448669433 22.970362579345647,41.854364486694294 22.416362579345673,39.490364486694375 C21.690362579345674,36.39436448669437 19.272362579345668,33.976364486694365 16.176362579345664,33.250364486694366 z" fill="#FCA311" id="svg_328" class=""/><path d="M16.176362579345664,33.250364486694366 C13.812362579345745,32.69636448669439 11.352362579345709,32.69636448669439 8.988362579345676,33.250364486694366 C5.892362579345672,33.976364486694365 3.475362579345756,36.39436448669437 2.749362579345757,39.490364486694375 C2.194362579345693,41.854364486694294 2.194362579345693,44.31436448669433 2.749362579345757,46.67836448669436 C3.475362579345756,49.77436448669437 5.892362579345672,52.19136448669428 8.988362579345676,52.91736448669428 C11.352362579345709,53.472364486694346 13.812362579345745,53.472364486694346 16.176362579345664,52.91736448669428 C19.272362579345668,52.19136448669428 21.690362579345674,49.77436448669437 22.416362579345673,46.67836448669436 C22.970362579345647,44.31436448669433 22.970362579345647,41.854364486694294 22.416362579345673,39.490364486694375 C21.690362579345674,36.39436448669437 19.272362579345668,33.976364486694365 16.176362579345664,33.250364486694366 z" fill="url(#paint5_linear_0_1)" id="svg_329" class=""/><path d="M43.67836257934573,5.74936448669439 C41.3143625793457,5.194364486694326 38.85436257934566,5.194364486694326 36.49036257934574,5.74936448669439 C33.39436257934574,6.475364486694389 30.976362579345732,8.892364486694305 30.250362579345733,11.988364486694309 C29.69636257934576,14.352364486694341 29.69636257934576,16.812364486694378 30.250362579345733,19.176364486694297 C30.976362579345732,22.2723644866943 33.39436257934574,24.690364486694307 36.49036257934574,25.416364486694306 C38.85436257934566,25.97036448669428 41.3143625793457,25.97036448669428 43.67836257934573,25.416364486694306 C46.774362579345734,24.690364486694307 49.19136257934565,22.2723644866943 49.91736257934565,19.176364486694297 C50.47236257934571,16.812364486694378 50.47236257934571,14.352364486694341 49.91736257934565,11.988364486694309 C49.19136257934565,8.892364486694305 46.774362579345734,6.475364486694389 43.67836257934573,5.74936448669439 z" fill="#FCA311" id="svg_330" class=""/><path d="M43.67836257934573,5.74936448669439 C41.3143625793457,5.194364486694326 38.85436257934566,5.194364486694326 36.49036257934574,5.74936448669439 C33.39436257934574,6.475364486694389 30.976362579345732,8.892364486694305 30.250362579345733,11.988364486694309 C29.69636257934576,14.352364486694341 29.69636257934576,16.812364486694378 30.250362579345733,19.176364486694297 C30.976362579345732,22.2723644866943 33.39436257934574,24.690364486694307 36.49036257934574,25.416364486694306 C38.85436257934566,25.97036448669428 41.3143625793457,25.97036448669428 43.67836257934573,25.416364486694306 C46.774362579345734,24.690364486694307 49.19136257934565,22.2723644866943 49.91736257934565,19.176364486694297 C50.47236257934571,16.812364486694378 50.47236257934571,14.352364486694341 49.91736257934565,11.988364486694309 C49.19136257934565,8.892364486694305 46.774362579345734,6.475364486694389 43.67836257934573,5.74936448669439 z" fill="url(#paint6_linear_0_1)" id="svg_331" class=""/><path d="M43.67836257934573,33.250364486694366 C41.3143625793457,32.69636448669439 38.85436257934566,32.69636448669439 36.49036257934574,33.250364486694366 C33.39436257934574,33.976364486694365 30.976362579345732,36.39436448669437 30.250362579345733,39.490364486694375 C29.69636257934576,41.854364486694294 29.69636257934576,44.31436448669433 30.250362579345733,46.67836448669436 C30.976362579345732,49.77436448669437 33.39436257934574,52.19136448669428 36.49036257934574,52.91736448669428 C38.85436257934566,53.472364486694346 41.3143625793457,53.472364486694346 43.67836257934573,52.91736448669428 C46.774362579345734,52.19136448669428 49.19136257934565,49.77436448669437 49.91736257934565,46.67836448669436 C50.47236257934571,44.31436448669433 50.47236257934571,41.854364486694294 49.91736257934565,39.490364486694375 C49.19136257934565,36.39436448669437 46.774362579345734,33.976364486694365 43.67836257934573,33.250364486694366 z" fill="#FCA311" id="svg_332" class=""/><path d="M43.67836257934573,33.250364486694366 C41.3143625793457,32.69636448669439 38.85436257934566,32.69636448669439 36.49036257934574,33.250364486694366 C33.39436257934574,33.976364486694365 30.976362579345732,36.39436448669437 30.250362579345733,39.490364486694375 C29.69636257934576,41.854364486694294 29.69636257934576,44.31436448669433 30.250362579345733,46.67836448669436 C30.976362579345732,49.77436448669437 33.39436257934574,52.19136448669428 36.49036257934574,52.91736448669428 C38.85436257934566,53.472364486694346 41.3143625793457,53.472364486694346 43.67836257934573,52.91736448669428 C46.774362579345734,52.19136448669428 49.19136257934565,49.77436448669437 49.91736257934565,46.67836448669436 C50.47236257934571,44.31436448669433 50.47236257934571,41.854364486694294 49.91736257934565,39.490364486694375 C49.19136257934565,36.39436448669437 46.774362579345734,33.976364486694365 43.67836257934573,33.250364486694366 z" fill="url(#paint7_linear_0_1)" id="svg_333" class=""/><path fill-rule="evenodd" clip-rule="evenodd" d="M550.92 905.485L549.522 905.793V907.652C549.522 910.839 547.518 913.55 544.722 914.555V919.56C544.722 920.908 543.647 922 542.322 922C540.996 922 539.921 920.908 539.921 919.56V914.555C537.125 913.55 535.121 910.839 535.121 907.652V905.929C534.913 905.887 534.704 905.843 534.496 905.797L533.08 905.485C526.17 903.963 520.702 898.597 518.962 891.63C517.679 886.496 517.679 881.118 518.962 875.984C520.702 869.018 526.17 863.651 533.08 862.129L534.496 861.817C539.441 860.728 544.559 860.728 549.504 861.817L550.92 862.129C557.83 863.651 563.298 869.018 565.038 875.985C566.321 881.118 566.321 886.496 565.038 891.63C563.298 898.597 557.83 903.963 550.92 905.485ZM544.722 906.508C544.443 906.53 544.165 906.548 543.886 906.563C542.565 906.635 541.242 906.631 539.921 906.552V907.652C539.921 908.999 540.996 910.092 542.322 910.092C543.647 910.092 544.722 908.999 544.722 907.652V906.508ZM544.801 874.116C545.629 874.789 545.764 876.018 545.101 876.859L541.196 881.821H546.802C547.54 881.821 548.213 882.251 548.533 882.928C548.852 883.604 548.762 884.407 548.301 884.993L541.901 893.126C541.238 893.968 540.03 894.104 539.202 893.431C538.374 892.757 538.24 891.529 538.902 890.687L542.807 885.725H537.201C536.463 885.725 535.79 885.295 535.471 884.619C535.151 883.943 535.241 883.14 535.702 882.554L542.102 874.421C542.765 873.579 543.973 873.442 544.801 874.116Z" fill="#FCA311" id="svg_334" class=""/><path fill-rule="evenodd" clip-rule="evenodd" d="M550.92 905.485L549.522 905.793V907.652C549.522 910.839 547.518 913.55 544.722 914.555V919.56C544.722 920.908 543.647 922 542.322 922C540.996 922 539.921 920.908 539.921 919.56V914.555C537.125 913.55 535.121 910.839 535.121 907.652V905.929C534.913 905.887 534.704 905.843 534.496 905.797L533.08 905.485C526.17 903.963 520.702 898.597 518.962 891.63C517.679 886.496 517.679 881.118 518.962 875.984C520.702 869.018 526.17 863.651 533.08 862.129L534.496 861.817C539.441 860.728 544.559 860.728 549.504 861.817L550.92 862.129C557.83 863.651 563.298 869.018 565.038 875.985C566.321 881.118 566.321 886.496 565.038 891.63C563.298 898.597 557.83 903.963 550.92 905.485ZM544.722 906.508C544.443 906.53 544.165 906.548 543.886 906.563C542.565 906.635 541.242 906.631 539.921 906.552V907.652C539.921 908.999 540.996 910.092 542.322 910.092C543.647 910.092 544.722 908.999 544.722 907.652V906.508ZM544.801 874.116C545.629 874.789 545.764 876.018 545.101 876.859L541.196 881.821H546.802C547.54 881.821 548.213 882.251 548.533 882.928C548.852 883.604 548.762 884.407 548.301 884.993L541.901 893.126C541.238 893.968 540.03 894.104 539.202 893.431C538.374 892.757 538.24 891.529 538.902 890.687L542.807 885.725H537.201C536.463 885.725 535.79 885.295 535.471 884.619C535.151 883.943 535.241 883.14 535.702 882.554L542.102 874.421C542.765 873.579 543.973 873.442 544.801 874.116Z" fill="url(#paint8_linear_0_1)" id="svg_335" class=""/><path fill-rule="evenodd" clip-rule="evenodd" d="M452.7456870117187,74.91700000000003 C457.95568701171874,73.69399999999996 463.37768701171876,73.69399999999996 468.5876870117188,74.91700000000003 C476.1106870117187,76.68100000000004 481.9856870117187,82.55600000000004 483.7496870117187,90.07899999999995 C484.9726870117188,95.28899999999999 484.9726870117188,100.71100000000001 483.7496870117187,105.92100000000005 C481.9856870117187,113.44399999999996 476.1106870117187,119.31899999999996 468.5876870117188,121.08299999999997 C463.37768701171876,122.30600000000004 457.95568701171874,122.30600000000004 452.7456870117187,121.08299999999997 C445.2226870117188,119.31899999999996 439.3476870117188,113.44399999999996 437.5836870117188,105.92100000000005 C436.3606870117187,100.71100000000001 436.3606870117187,95.28899999999999 437.5836870117188,90.07899999999995 C439.3476870117188,82.55600000000004 445.2226870117188,76.68100000000004 452.7456870117187,74.91700000000003 zM464.6396870117187,92.70000000000005 C465.47368701171877,92.36599999999999 466.30068701171876,93.19299999999998 465.9676870117188,94.02700000000004 L463.8866870117188,99.22900000000004 C463.5236870117187,100.13699999999994 462.8036870117187,100.856 461.8956870117188,101.22000000000003 L456.6936870117188,103.29999999999995 C455.8606870117187,103.63400000000001 455.03268701171874,102.80700000000002 455.3666870117188,101.97299999999996 L457.4476870117187,96.77099999999996 C457.81068701171876,95.86300000000006 458.5296870117188,95.144 459.4386870117188,94.77999999999997 L464.6396870117187,92.70000000000005 zM468.81168701171873,95.16499999999996 C470.1456870117188,91.83000000000004 466.8366870117187,88.52200000000005 463.50268701171876,89.85500000000002 L458.30068701171876,91.93600000000004 C456.61368701171875,92.61099999999999 455.27768701171874,93.947 454.6026870117188,95.63400000000001 L452.52268701171874,100.83500000000004 C451.1886870117188,104.16999999999996 454.49768701171877,107.47799999999995 457.8316870117187,106.14499999999998 L463.0336870117187,104.06399999999996 C464.71968701171875,103.38900000000001 466.05668701171874,102.053 466.7306870117187,100.36599999999999 L468.81168701171873,95.16499999999996 z" fill="#FCA311" id="svg_336" class=""/><path fill-rule="evenodd" clip-rule="evenodd" d="M452.7456870117187,74.91700000000003 C457.95568701171874,73.69399999999996 463.37768701171876,73.69399999999996 468.5876870117188,74.91700000000003 C476.1106870117187,76.68100000000004 481.9856870117187,82.55600000000004 483.7496870117187,90.07899999999995 C484.9726870117188,95.28899999999999 484.9726870117188,100.71100000000001 483.7496870117187,105.92100000000005 C481.9856870117187,113.44399999999996 476.1106870117187,119.31899999999996 468.5876870117188,121.08299999999997 C463.37768701171876,122.30600000000004 457.95568701171874,122.30600000000004 452.7456870117187,121.08299999999997 C445.2226870117188,119.31899999999996 439.3476870117188,113.44399999999996 437.5836870117188,105.92100000000005 C436.3606870117187,100.71100000000001 436.3606870117187,95.28899999999999 437.5836870117188,90.07899999999995 C439.3476870117188,82.55600000000004 445.2226870117188,76.68100000000004 452.7456870117187,74.91700000000003 zM464.6396870117187,92.70000000000005 C465.47368701171877,92.36599999999999 466.30068701171876,93.19299999999998 465.9676870117188,94.02700000000004 L463.8866870117188,99.22900000000004 C463.5236870117187,100.13699999999994 462.8036870117187,100.856 461.8956870117188,101.22000000000003 L456.6936870117188,103.29999999999995 C455.8606870117187,103.63400000000001 455.03268701171874,102.80700000000002 455.3666870117188,101.97299999999996 L457.4476870117187,96.77099999999996 C457.81068701171876,95.86300000000006 458.5296870117188,95.144 459.4386870117188,94.77999999999997 L464.6396870117187,92.70000000000005 zM468.81168701171873,95.16499999999996 C470.1456870117188,91.83000000000004 466.8366870117187,88.52200000000005 463.50268701171876,89.85500000000002 L458.30068701171876,91.93600000000004 C456.61368701171875,92.61099999999999 455.27768701171874,93.947 454.6026870117188,95.63400000000001 L452.52268701171874,100.83500000000004 C451.1886870117188,104.16999999999996 454.49768701171877,107.47799999999995 457.8316870117187,106.14499999999998 L463.0336870117187,104.06399999999996 C464.71968701171875,103.38900000000001 466.05668701171874,102.053 466.7306870117187,100.36599999999999 L468.81168701171873,95.16499999999996 z" fill="url(#paint9_linear_0_1)" id="svg_337" class=""/><path fill-rule="evenodd" clip-rule="evenodd" d="M652.147 771C657.154 771 661.448 773.854 663.604 777.975C666.25 776.793 669.197 776.134 672.302 776.134C683.701 776.134 693 785.027 693 796.067C693 807.107 683.7 816 672.302 816L648.116 816C639.8 816 633 809.51 633 801.433C633 796.181 635.881 791.597 640.175 789.037C639.547 787.5 639.202 785.818 639.202 784.059C639.202 776.92 644.924 771 652.147 771ZM643.388 784.059C643.388 779.033 647.383 775.091 652.147 775.091C655.54 775.091 658.534 777.08 659.985 780.047C657.365 781.918 655.218 784.372 653.753 787.216C653.652 787.41 653.555 787.606 653.462 787.804C653.275 787.736 653.087 787.672 652.897 787.611C651.392 787.128 649.784 786.867 648.116 786.867C646.699 786.867 645.324 787.055 644.019 787.409C643.612 786.377 643.388 785.247 643.388 784.059Z" fill="#FCA311" id="svg_338" class=""/><path fill-rule="evenodd" clip-rule="evenodd" d="M531.147 771C536.154 771 540.448 773.854 542.604 777.975C545.25 776.793 548.197 776.134 551.302 776.134C562.701 776.134 572 785.027 572 796.067C572 807.107 562.7 816 551.302 816L527.116 816C518.8 816 512 809.51 512 801.433C512 796.181 514.881 791.597 519.175 789.037C518.547 787.5 518.202 785.818 518.202 784.059C518.202 776.92 523.924 771 531.147 771ZM522.388 784.059C522.388 779.033 526.383 775.091 531.147 775.091C534.54 775.091 537.534 777.08 538.985 780.047C536.365 781.918 534.218 784.372 532.753 787.216C532.652 787.41 532.555 787.606 532.462 787.804C532.275 787.736 532.087 787.672 531.897 787.611C530.392 787.128 528.784 786.867 527.116 786.867C525.699 786.867 524.324 787.055 523.019 787.409C522.612 786.377 522.388 785.247 522.388 784.059Z" fill="#FCA311" id="svg_340" class=""/><path fill-rule="evenodd" clip-rule="evenodd" d="M531.147 771C536.154 771 540.448 773.854 542.604 777.975C545.25 776.793 548.197 776.134 551.302 776.134C562.701 776.134 572 785.027 572 796.067C572 807.107 562.7 816 551.302 816L527.116 816C518.8 816 512 809.51 512 801.433C512 796.181 514.881 791.597 519.175 789.037C518.547 787.5 518.202 785.818 518.202 784.059C518.202 776.92 523.924 771 531.147 771ZM522.388 784.059C522.388 779.033 526.383 775.091 531.147 775.091C534.54 775.091 537.534 777.08 538.985 780.047C536.365 781.918 534.218 784.372 532.753 787.216C532.652 787.41 532.555 787.606 532.462 787.804C532.275 787.736 532.087 787.672 531.897 787.611C530.392 787.128 528.784 786.867 527.116 786.867C525.699 786.867 524.324 787.055 523.019 787.409C522.612 786.377 522.388 785.247 522.388 784.059Z" fill="url(#paint11_linear_0_1)" id="svg_341" class=""/></g></svg>