<svg xmlns="http://www.w3.org/2000/svg" width="75.33335346645708" height="80.33335267172833" fill="none" style=""><rect id="backgroundrect" width="100%" height="100%" x="0" y="0" fill="none" stroke="none" class="" style=""/>
<defs>
<linearGradient id="paint0_linear_0_1" x1="-0.06654699891805649" y1="-0.015409188345074654" x2="1.3457750082015991" y2="3.978269577026367">
<stop stop-color="#09C6F9"/>
<stop offset="1" stop-color="#045DE9"/>
</linearGradient>
<linearGradient id="paint1_linear_0_1" x1="-1.1734251976013184" y1="-0.007460176013410091" x2="0.1507825255393982" y2="1.9260320663452148">
<stop stop-color="#09C6F9"/>
<stop offset="1" stop-color="#045DE9"/>
</linearGradient>
<linearGradient id="paint2_linear_0_1" x1="-1.2515062093734741" y1="-2.3473527431488037" x2="0.1608157604932785" y2="1.6463258266448975">
<stop stop-color="#09C6F9"/>
<stop offset="1" stop-color="#045DE9"/>
</linearGradient>
<linearGradient id="paint3_linear_0_1" x1="-0.000005527320354303811" y1="-0.6205812096595764" x2="1.3242021799087524" y2="1.312911033630371">
<stop stop-color="#09C6F9"/>
<stop offset="1" stop-color="#045DE9"/>
</linearGradient>
<linearGradient id="paint4_linear_0_1" x1="0.000011910007742699236" y1="-0.010817265138030052" x2="1.4266819953918457" y2="2.7958357334136963">
<stop stop-color="#09C6F9"/>
<stop offset="1" stop-color="#045DE9"/>
</linearGradient>
<linearGradient id="paint5_linear_0_1" x1="0.000011910007742699236" y1="-1.3524439334869385" x2="1.4266819953918457" y2="1.4542089700698853">
<stop stop-color="#09C6F9"/>
<stop offset="1" stop-color="#045DE9"/>
</linearGradient>
<linearGradient id="paint6_linear_0_1" x1="-1.3416147232055664" y1="-0.010817265138030052" x2="0.08505532145500183" y2="2.7958357334136963">
<stop stop-color="#09C6F9"/>
<stop offset="1" stop-color="#045DE9"/>
</linearGradient>
<linearGradient id="paint7_linear_0_1" x1="-1.3416147232055664" y1="-1.3524439334869385" x2="0.08505532145500183" y2="1.4542089700698853">
<stop stop-color="#09C6F9"/>
<stop offset="1" stop-color="#045DE9"/>
</linearGradient>
<linearGradient id="paint8_linear_0_1" x1="0.0000050862113312177826" y1="-0.004626683425158262" x2="0.8736623525619507" y2="1.0595905780792236">
<stop stop-color="#09C6F9"/>
<stop offset="1" stop-color="#045DE9"/>
</linearGradient>
<linearGradient id="paint9_linear_0_1" x1="0.0000050862113312177826" y1="-0.004619551356881857" x2="0.6092696189880371" y2="1.1939715147018433">
<stop stop-color="#09C6F9"/>
<stop offset="1" stop-color="#045DE9"/>
</linearGradient>
<linearGradient id="paint10_linear_0_1" x1="0" y1="-0.004622395616024733" x2="0.3765502870082855" y2="1.3122884035110474">
<stop stop-color="#09C6F9"/>
<stop offset="1" stop-color="#045DE9"/>
</linearGradient>
<linearGradient id="paint11_linear_0_1" x1="0" y1="-0.004622395616024733" x2="0.3765502870082855" y2="1.3122884035110474">
<stop stop-color="#09C6F9"/>
<stop offset="1" stop-color="#045DE9"/>
</linearGradient>
<linearGradient id="paint12_linear_0_1" x1="0" y1="-0.0046253204345703125" x2="0.6092815399169922" y2="1.1939678192138672">
<stop stop-color="#09C6F9"/>
<stop offset="1" stop-color="#045DE9"/>
</linearGradient>
<linearGradient id="paint13_linear_0_1" x1="0" y1="-0.0046253204345703125" x2="0.6092815399169922" y2="1.1939678192138672">
<stop stop-color="#09C6F9"/>
<stop offset="1" stop-color="#045DE9"/>
</linearGradient>
<linearGradient id="paint14_linear_0_1" x1="0" y1="-0.0046253204345703125" x2="0.6092815399169922" y2="1.1939678192138672">
<stop stop-color="#09C6F9"/>
<stop offset="1" stop-color="#045DE9"/>
</linearGradient>
<linearGradient id="paint15_linear_0_1" x1="0" y1="-0.0046253204345703125" x2="0.6092815399169922" y2="1.1939678192138672">
<stop stop-color="#09C6F9"/>
<stop offset="1" stop-color="#045DE9"/>
</linearGradient>
<clipPath id="clip0_0_1">
<rect width="544" height="420" fill="white" y="39" x="0" id="svg_1"/>
</clipPath>
</defs>
<g class="currentLayer" style=""><title>Layer 1</title><path d="M511.08500000000004,745.0950012207031 V759.5010012207031 H490.37800000000004 C492.56500000000005,752.7630012207031 498.116,747.5980012207032 505.07899999999995,745.9610012207031 C507.05899999999997,745.4950012207031 509.068,745.2070012207031 511.08500000000004,745.0950012207031 z" fill="#FCA311" id="svg_318" class=""/><path d="M511.08500000000004,745.0950012207031 V759.5010012207031 H490.37800000000004 C492.56500000000005,752.7630012207031 498.116,747.5980012207032 505.07899999999995,745.9610012207031 C507.05899999999997,745.4950012207031 509.068,745.2070012207031 511.08500000000004,745.0950012207031 z" fill="url(#paint0_linear_0_1)" id="svg_319" class=""/><path d="M514.915,745.0950012207031 V774.8510012207031 H536.521 C537.282,770.3100012207032 537.136,765.6550012207031 536.083,761.1570012207031 C534.319,753.6170012207032 528.444,747.7290012207031 520.921,745.9610012207031 C518.942,745.4950012207031 516.932,745.2070012207031 514.915,745.0950012207031 z" fill="#FCA311" id="svg_320" class=""/><path d="M514.915,745.0950012207031 V774.8510012207031 H536.521 C537.282,770.3100012207032 537.136,765.6550012207031 536.083,761.1570012207031 C534.319,753.6170012207032 528.444,747.7290012207031 520.921,745.9610012207031 C518.942,745.4950012207031 516.932,745.2070012207031 514.915,745.0950012207031 z" fill="url(#paint1_linear_0_1)" id="svg_321" class=""/><path d="M535.622,778.6890012207032 H514.915 V793.0950012207031 C516.932,792.9830012207032 518.942,792.6950012207031 520.921,792.2290012207031 C527.884,790.5920012207031 533.435,785.4270012207031 535.622,778.6890012207032 z" fill="#FCA311" id="svg_322" class=""/><path d="M535.622,778.6890012207032 H514.915 V793.0950012207031 C516.932,792.9830012207032 518.942,792.6950012207031 520.921,792.2290012207031 C527.884,790.5920012207031 533.435,785.4270012207031 535.622,778.6890012207032 z" fill="url(#paint2_linear_0_1)" id="svg_323" class=""/><path d="M511.08500000000004,793.0950012207031 V763.3390012207032 H489.47900000000004 C488.71799999999996,767.8800012207031 488.86400000000003,772.5350012207032 489.91700000000003,777.0330012207031 C491.68100000000004,784.5730012207031 497.55600000000004,790.4610012207031 505.07899999999995,792.2290012207031 C507.05899999999997,792.6950012207031 509.068,792.9830012207032 511.08500000000004,793.0950012207031 z" fill="#FCA311" id="svg_324" class=""/><path d="M511.08500000000004,793.0950012207031 V763.3390012207032 H489.47900000000004 C488.71799999999996,767.8800012207031 488.86400000000003,772.5350012207032 489.91700000000003,777.0330012207031 C491.68100000000004,784.5730012207031 497.55600000000004,790.4610012207031 505.07899999999995,792.2290012207031 C507.05899999999997,792.6950012207031 509.068,792.9830012207032 511.08500000000004,793.0950012207031 z" fill="url(#paint3_linear_0_1)" id="svg_325" class=""/><path d="M381.84299999999996,745.5110012207032 C379.47900000000004,744.9560012207031 377.019,744.9560012207031 374.655,745.5110012207032 C371.55899999999997,746.2370012207032 369.14200000000005,748.6540012207031 368.41600000000005,751.7500012207031 C367.861,754.1140012207031 367.861,756.5740012207032 368.41600000000005,758.9380012207031 C369.14200000000005,762.0340012207031 371.55899999999997,764.4520012207031 374.655,765.1780012207031 C377.019,765.7320012207031 379.47900000000004,765.7320012207031 381.84299999999996,765.1780012207031 C384.93899999999996,764.4520012207031 387.35699999999997,762.0340012207031 388.08299999999997,758.9380012207031 C388.63699999999994,756.5740012207032 388.63699999999994,754.1140012207031 388.08299999999997,751.7500012207031 C387.35699999999997,748.6540012207031 384.93899999999996,746.2370012207032 381.84299999999996,745.5110012207032 z" fill="#FCA311" id="svg_326" class=""/><path d="M381.84299999999996,745.5110012207032 C379.47900000000004,744.9560012207031 377.019,744.9560012207031 374.655,745.5110012207032 C371.55899999999997,746.2370012207032 369.14200000000005,748.6540012207031 368.41600000000005,751.7500012207031 C367.861,754.1140012207031 367.861,756.5740012207032 368.41600000000005,758.9380012207031 C369.14200000000005,762.0340012207031 371.55899999999997,764.4520012207031 374.655,765.1780012207031 C377.019,765.7320012207031 379.47900000000004,765.7320012207031 381.84299999999996,765.1780012207031 C384.93899999999996,764.4520012207031 387.35699999999997,762.0340012207031 388.08299999999997,758.9380012207031 C388.63699999999994,756.5740012207032 388.63699999999994,754.1140012207031 388.08299999999997,751.7500012207031 C387.35699999999997,748.6540012207031 384.93899999999996,746.2370012207032 381.84299999999996,745.5110012207032 z" fill="url(#paint4_linear_0_1)" id="svg_327" class=""/><path d="M381.84299999999996,773.0120012207032 C379.47900000000004,772.4580012207032 377.019,772.4580012207032 374.655,773.0120012207032 C371.55899999999997,773.7380012207032 369.14200000000005,776.1560012207032 368.41600000000005,779.2520012207032 C367.861,781.6160012207031 367.861,784.0760012207031 368.41600000000005,786.4400012207032 C369.14200000000005,789.5360012207032 371.55899999999997,791.9530012207031 374.655,792.6790012207031 C377.019,793.2340012207031 379.47900000000004,793.2340012207031 381.84299999999996,792.6790012207031 C384.93899999999996,791.9530012207031 387.35699999999997,789.5360012207032 388.08299999999997,786.4400012207032 C388.63699999999994,784.0760012207031 388.63699999999994,781.6160012207031 388.08299999999997,779.2520012207032 C387.35699999999997,776.1560012207032 384.93899999999996,773.7380012207032 381.84299999999996,773.0120012207032 z" fill="#FCA311" id="svg_328" class=""/><path d="M381.84299999999996,773.0120012207032 C379.47900000000004,772.4580012207032 377.019,772.4580012207032 374.655,773.0120012207032 C371.55899999999997,773.7380012207032 369.14200000000005,776.1560012207032 368.41600000000005,779.2520012207032 C367.861,781.6160012207031 367.861,784.0760012207031 368.41600000000005,786.4400012207032 C369.14200000000005,789.5360012207032 371.55899999999997,791.9530012207031 374.655,792.6790012207031 C377.019,793.2340012207031 379.47900000000004,793.2340012207031 381.84299999999996,792.6790012207031 C384.93899999999996,791.9530012207031 387.35699999999997,789.5360012207032 388.08299999999997,786.4400012207032 C388.63699999999994,784.0760012207031 388.63699999999994,781.6160012207031 388.08299999999997,779.2520012207032 C387.35699999999997,776.1560012207032 384.93899999999996,773.7380012207032 381.84299999999996,773.0120012207032 z" fill="url(#paint5_linear_0_1)" id="svg_329" class=""/><path d="M409.345,745.5110012207032 C406.981,744.9560012207031 404.52099999999996,744.9560012207031 402.15700000000004,745.5110012207032 C399.06100000000004,746.2370012207032 396.64300000000003,748.6540012207031 395.91700000000003,751.7500012207031 C395.36300000000006,754.1140012207031 395.36300000000006,756.5740012207032 395.91700000000003,758.9380012207031 C396.64300000000003,762.0340012207031 399.06100000000004,764.4520012207031 402.15700000000004,765.1780012207031 C404.52099999999996,765.7320012207031 406.981,765.7320012207031 409.345,765.1780012207031 C412.44100000000003,764.4520012207031 414.85799999999995,762.0340012207031 415.58399999999995,758.9380012207031 C416.139,756.5740012207032 416.139,754.1140012207031 415.58399999999995,751.7500012207031 C414.85799999999995,748.6540012207031 412.44100000000003,746.2370012207032 409.345,745.5110012207032 z" fill="#FCA311" id="svg_330" class=""/><path d="M409.345,745.5110012207032 C406.981,744.9560012207031 404.52099999999996,744.9560012207031 402.15700000000004,745.5110012207032 C399.06100000000004,746.2370012207032 396.64300000000003,748.6540012207031 395.91700000000003,751.7500012207031 C395.36300000000006,754.1140012207031 395.36300000000006,756.5740012207032 395.91700000000003,758.9380012207031 C396.64300000000003,762.0340012207031 399.06100000000004,764.4520012207031 402.15700000000004,765.1780012207031 C404.52099999999996,765.7320012207031 406.981,765.7320012207031 409.345,765.1780012207031 C412.44100000000003,764.4520012207031 414.85799999999995,762.0340012207031 415.58399999999995,758.9380012207031 C416.139,756.5740012207032 416.139,754.1140012207031 415.58399999999995,751.7500012207031 C414.85799999999995,748.6540012207031 412.44100000000003,746.2370012207032 409.345,745.5110012207032 z" fill="url(#paint6_linear_0_1)" id="svg_331" class=""/><path d="M409.345,773.0120012207032 C406.981,772.4580012207032 404.52099999999996,772.4580012207032 402.15700000000004,773.0120012207032 C399.06100000000004,773.7380012207032 396.64300000000003,776.1560012207032 395.91700000000003,779.2520012207032 C395.36300000000006,781.6160012207031 395.36300000000006,784.0760012207031 395.91700000000003,786.4400012207032 C396.64300000000003,789.5360012207032 399.06100000000004,791.9530012207031 402.15700000000004,792.6790012207031 C404.52099999999996,793.2340012207031 406.981,793.2340012207031 409.345,792.6790012207031 C412.44100000000003,791.9530012207031 414.85799999999995,789.5360012207032 415.58399999999995,786.4400012207032 C416.139,784.0760012207031 416.139,781.6160012207031 415.58399999999995,779.2520012207032 C414.85799999999995,776.1560012207032 412.44100000000003,773.7380012207032 409.345,773.0120012207032 z" fill="#FCA311" id="svg_332" class=""/><path d="M409.345,773.0120012207032 C406.981,772.4580012207032 404.52099999999996,772.4580012207032 402.15700000000004,773.0120012207032 C399.06100000000004,773.7380012207032 396.64300000000003,776.1560012207032 395.91700000000003,779.2520012207032 C395.36300000000006,781.6160012207031 395.36300000000006,784.0760012207031 395.91700000000003,786.4400012207032 C396.64300000000003,789.5360012207032 399.06100000000004,791.9530012207031 402.15700000000004,792.6790012207031 C404.52099999999996,793.2340012207031 406.981,793.2340012207031 409.345,792.6790012207031 C412.44100000000003,791.9530012207031 414.85799999999995,789.5360012207032 415.58399999999995,786.4400012207032 C416.139,784.0760012207031 416.139,781.6160012207031 415.58399999999995,779.2520012207032 C414.85799999999995,776.1560012207032 412.44100000000003,773.7380012207032 409.345,773.0120012207032 z" fill="url(#paint7_linear_0_1)" id="svg_333" class=""/><path fill-rule="evenodd" clip-rule="evenodd" d="M46.58668224334713,55.24666915893556 L45.188682243347216,55.55466915893555 V57.41366915893559 C45.188682243347216,60.6006691589356 43.1846822433472,63.3116691589355 40.38868224334715,64.3166691589355 V69.32166915893549 C40.38868224334715,70.66966915893556 39.313682243347216,71.76166915893555 37.98868224334717,71.76166915893555 C36.66268224334715,71.76166915893555 35.58768224334722,70.66966915893556 35.58768224334722,69.32166915893549 V64.3166691589355 C32.79168224334717,63.3116691589355 30.78768224334715,60.6006691589356 30.78768224334715,57.41366915893559 V55.69066915893552 C30.57968224334718,55.64866915893549 30.37068224334712,55.60466915893551 30.16268224334715,55.55866915893557 L28.74668224334721,55.24666915893556 C21.836682243347127,53.72466915893551 16.368682243347166,48.35866915893553 14.628682243347157,41.39166915893554 C13.345682243347142,36.25766915893553 13.345682243347142,30.8796691589356 14.628682243347157,25.745669158935584 C16.368682243347166,18.779669158935576 21.836682243347127,13.4126691589355 28.74668224334721,11.890669158935566 L30.16268224334715,11.578669158935554 C35.1076822433472,10.489669158935499 40.22568224334714,10.489669158935499 45.17068224334719,11.578669158935554 L46.58668224334713,11.890669158935566 C53.49668224334721,13.4126691589355 58.96468224334717,18.779669158935576 60.70468224334718,25.74666915893556 C61.987682243347194,30.8796691589356 61.987682243347194,36.25766915893553 60.70468224334718,41.39166915893554 C58.96468224334717,48.35866915893553 53.49668224334721,53.72466915893551 46.58668224334713,55.24666915893556 zM40.38868224334715,56.269669158935585 C40.10968224334715,56.29166915893552 39.83168224334713,56.30966915893555 39.552682243347135,56.324669158935535 C38.23168224334722,56.39666915893554 36.90868224334713,56.39266915893552 35.58768224334722,56.31366915893557 V57.41366915893559 C35.58768224334722,58.76066915893557 36.66268224334715,59.85366915893553 37.98868224334717,59.85366915893553 C39.313682243347216,59.85366915893553 40.38868224334715,58.76066915893557 40.38868224334715,57.41366915893559 V56.269669158935585 zM40.46768224334721,23.877669158935532 C41.29568224334719,24.550669158935534 41.43068224334718,25.779669158935576 40.76768224334717,26.620669158935584 L36.862682243347194,31.582669158935573 H42.46868224334719 C43.20668224334713,31.582669158935573 43.87968224334713,32.01266915893552 44.19968224334718,32.689669158935544 C44.51868224334714,33.36566915893559 44.42868224334711,34.168669158935586 43.96768224334721,34.7546691589356 L37.56768224334712,42.88766915893552 C36.904682243347224,43.72966915893551 35.69668224334714,43.86566915893559 34.868682243347166,43.19266915893559 C34.04068224334719,42.518669158935495 33.90668224334718,41.29066915893554 34.56868224334721,40.44866915893556 L38.473682243347184,35.48666915893557 H32.86768224334719 C32.12968224334713,35.48666915893557 31.45668224334713,35.056669158935506 31.13768224334717,34.380669158935575 C30.81768224334712,33.70466915893553 30.907682243347153,32.90166915893553 31.368682243347166,32.31566915893552 L37.76868224334714,24.182669158935596 C38.431682243347154,23.340669158935498 39.639682243347124,23.203669158935554 40.46768224334721,23.877669158935532 z" fill="#FCA311" id="svg_334" class=""/><path fill-rule="evenodd" clip-rule="evenodd" d="M46.58668224334713,55.24666915893556 L45.188682243347216,55.55466915893555 V57.41366915893559 C45.188682243347216,60.6006691589356 43.1846822433472,63.3116691589355 40.38868224334715,64.3166691589355 V69.32166915893549 C40.38868224334715,70.66966915893556 39.313682243347216,71.76166915893555 37.98868224334717,71.76166915893555 C36.66268224334715,71.76166915893555 35.58768224334722,70.66966915893556 35.58768224334722,69.32166915893549 V64.3166691589355 C32.79168224334717,63.3116691589355 30.78768224334715,60.6006691589356 30.78768224334715,57.41366915893559 V55.69066915893552 C30.57968224334718,55.64866915893549 30.37068224334712,55.60466915893551 30.16268224334715,55.55866915893557 L28.74668224334721,55.24666915893556 C21.836682243347127,53.72466915893551 16.368682243347166,48.35866915893553 14.628682243347157,41.39166915893554 C13.345682243347142,36.25766915893553 13.345682243347142,30.8796691589356 14.628682243347157,25.745669158935584 C16.368682243347166,18.779669158935576 21.836682243347127,13.4126691589355 28.74668224334721,11.890669158935566 L30.16268224334715,11.578669158935554 C35.1076822433472,10.489669158935499 40.22568224334714,10.489669158935499 45.17068224334719,11.578669158935554 L46.58668224334713,11.890669158935566 C53.49668224334721,13.4126691589355 58.96468224334717,18.779669158935576 60.70468224334718,25.74666915893556 C61.987682243347194,30.8796691589356 61.987682243347194,36.25766915893553 60.70468224334718,41.39166915893554 C58.96468224334717,48.35866915893553 53.49668224334721,53.72466915893551 46.58668224334713,55.24666915893556 zM40.38868224334715,56.269669158935585 C40.10968224334715,56.29166915893552 39.83168224334713,56.30966915893555 39.552682243347135,56.324669158935535 C38.23168224334722,56.39666915893554 36.90868224334713,56.39266915893552 35.58768224334722,56.31366915893557 V57.41366915893559 C35.58768224334722,58.76066915893557 36.66268224334715,59.85366915893553 37.98868224334717,59.85366915893553 C39.313682243347216,59.85366915893553 40.38868224334715,58.76066915893557 40.38868224334715,57.41366915893559 V56.269669158935585 zM40.46768224334721,23.877669158935532 C41.29568224334719,24.550669158935534 41.43068224334718,25.779669158935576 40.76768224334717,26.620669158935584 L36.862682243347194,31.582669158935573 H42.46868224334719 C43.20668224334713,31.582669158935573 43.87968224334713,32.01266915893552 44.19968224334718,32.689669158935544 C44.51868224334714,33.36566915893559 44.42868224334711,34.168669158935586 43.96768224334721,34.7546691589356 L37.56768224334712,42.88766915893552 C36.904682243347224,43.72966915893551 35.69668224334714,43.86566915893559 34.868682243347166,43.19266915893559 C34.04068224334719,42.518669158935495 33.90668224334718,41.29066915893554 34.56868224334721,40.44866915893556 L38.473682243347184,35.48666915893557 H32.86768224334719 C32.12968224334713,35.48666915893557 31.45668224334713,35.056669158935506 31.13768224334717,34.380669158935575 C30.81768224334712,33.70466915893553 30.907682243347153,32.90166915893553 31.368682243347166,32.31566915893552 L37.76868224334714,24.182669158935596 C38.431682243347154,23.340669158935498 39.639682243347124,23.203669158935554 40.46768224334721,23.877669158935532 z" fill="url(#paint8_linear_0_1)" id="svg_335" class=""/><path fill-rule="evenodd" clip-rule="evenodd" d="M505.07899999999995,648.0120012207032 C510.289,646.7890012207031 515.711,646.7890012207031 520.921,648.0120012207032 C528.444,649.7760012207032 534.319,655.6510012207032 536.083,663.1740012207031 C537.306,668.3840012207031 537.306,673.8060012207031 536.083,679.0160012207032 C534.319,686.5390012207031 528.444,692.4140012207031 520.921,694.1780012207031 C515.711,695.4010012207032 510.289,695.4010012207032 505.07899999999995,694.1780012207031 C497.55600000000004,692.4140012207031 491.68100000000004,686.5390012207031 489.91700000000003,679.0160012207032 C488.69399999999996,673.8060012207031 488.69399999999996,668.3840012207031 489.91700000000003,663.1740012207031 C491.68100000000004,655.6510012207032 497.55600000000004,649.7760012207032 505.07899999999995,648.0120012207032 zM516.973,665.7950012207032 C517.807,665.4610012207031 518.634,666.2880012207031 518.301,667.1220012207032 L516.22,672.3240012207032 C515.857,673.2320012207031 515.137,673.9510012207031 514.229,674.3150012207032 L509.02700000000004,676.3950012207031 C508.19399999999996,676.7290012207031 507.366,675.9020012207031 507.70000000000005,675.0680012207031 L509.78099999999995,669.8660012207031 C510.144,668.9580012207032 510.86300000000006,668.2390012207031 511.77200000000005,667.8750012207031 L516.973,665.7950012207032 zM521.145,668.2600012207031 C522.479,664.9250012207032 519.17,661.6170012207032 515.836,662.9500012207031 L510.634,665.0310012207032 C508.947,665.7060012207031 507.611,667.0420012207031 506.93600000000004,668.7290012207031 L504.856,673.9300012207032 C503.52200000000005,677.2650012207031 506.831,680.5730012207031 510.16499999999996,679.2400012207031 L515.367,677.1590012207031 C517.053,676.4840012207031 518.39,675.1480012207031 519.064,673.4610012207031 L521.145,668.2600012207031 z" fill="#FCA311" id="svg_336" class=""/><path fill-rule="evenodd" clip-rule="evenodd" d="M381.14700000000005,649.0950012207031 C386.154,649.0950012207031 390.448,651.9490012207032 392.60400000000004,656.0700012207031 C395.25,654.8880012207031 398.197,654.2290012207031 401.302,654.2290012207031 C412.701,654.2290012207031 422,663.1220012207032 422,674.1620012207031 C422,685.2020012207031 412.70000000000005,694.0950012207031 401.302,694.0950012207031 L377.116,694.0950012207031 C368.79999999999995,694.0950012207031 362,687.6050012207031 362,679.5280012207031 C362,674.2760012207032 364.881,669.6920012207031 369.17499999999995,667.1320012207032 C368.547,665.5950012207031 368.202,663.9130012207031 368.202,662.1540012207031 C368.202,655.0150012207031 373.924,649.0950012207031 381.14700000000005,649.0950012207031 zM372.38800000000003,662.1540012207031 C372.38800000000003,657.1280012207031 376.38300000000004,653.1860012207031 381.14700000000005,653.1860012207031 C384.53999999999996,653.1860012207031 387.534,655.1750012207032 388.985,658.1420012207032 C386.365,660.0130012207031 384.21799999999996,662.4670012207031 382.75300000000004,665.3110012207031 C382.65200000000004,665.5050012207031 382.55499999999995,665.7010012207031 382.462,665.8990012207031 C382.275,665.8310012207031 382.087,665.7670012207032 381.89700000000005,665.7060012207031 C380.39200000000005,665.2230012207032 378.784,664.9620012207031 377.116,664.9620012207031 C375.69899999999996,664.9620012207031 374.32399999999996,665.1500012207031 373.019,665.5040012207031 C372.61199999999997,664.4720012207031 372.38800000000003,663.3420012207031 372.38800000000003,662.1540012207031 z" fill="#FCA311" id="svg_338" class=""/><path fill-rule="evenodd" clip-rule="evenodd" d="M381.14700000000005,649.0950012207031 C386.154,649.0950012207031 390.448,651.9490012207032 392.60400000000004,656.0700012207031 C395.25,654.8880012207031 398.197,654.2290012207031 401.302,654.2290012207031 C412.701,654.2290012207031 422,663.1220012207032 422,674.1620012207031 C422,685.2020012207031 412.70000000000005,694.0950012207031 401.302,694.0950012207031 L377.116,694.0950012207031 C368.79999999999995,694.0950012207031 362,687.6050012207031 362,679.5280012207031 C362,674.2760012207032 364.881,669.6920012207031 369.17499999999995,667.1320012207032 C368.547,665.5950012207031 368.202,663.9130012207031 368.202,662.1540012207031 C368.202,655.0150012207031 373.924,649.0950012207031 381.14700000000005,649.0950012207031 zM372.38800000000003,662.1540012207031 C372.38800000000003,657.1280012207031 376.38300000000004,653.1860012207031 381.14700000000005,653.1860012207031 C384.53999999999996,653.1860012207031 387.534,655.1750012207032 388.985,658.1420012207032 C386.365,660.0130012207031 384.21799999999996,662.4670012207031 382.75300000000004,665.3110012207031 C382.65200000000004,665.5050012207031 382.55499999999995,665.7010012207031 382.462,665.8990012207031 C382.275,665.8310012207031 382.087,665.7670012207032 381.89700000000005,665.7060012207031 C380.39200000000005,665.2230012207032 378.784,664.9620012207031 377.116,664.9620012207031 C375.69899999999996,664.9620012207031 374.32399999999996,665.1500012207031 373.019,665.5040012207031 C372.61199999999997,664.4720012207031 372.38800000000003,663.3420012207031 372.38800000000003,662.1540012207031 z" fill="url(#paint10_linear_0_1)" id="svg_339" class=""/><path fill-rule="evenodd" clip-rule="evenodd" d="M381.14700000000005,649.0950012207031 C386.154,649.0950012207031 390.448,651.9490012207032 392.60400000000004,656.0700012207031 C395.25,654.8880012207031 398.197,654.2290012207031 401.302,654.2290012207031 C412.701,654.2290012207031 422,663.1220012207032 422,674.1620012207031 C422,685.2020012207031 412.70000000000005,694.0950012207031 401.302,694.0950012207031 L377.116,694.0950012207031 C368.79999999999995,694.0950012207031 362,687.6050012207031 362,679.5280012207031 C362,674.2760012207032 364.881,669.6920012207031 369.17499999999995,667.1320012207032 C368.547,665.5950012207031 368.202,663.9130012207031 368.202,662.1540012207031 C368.202,655.0150012207031 373.924,649.0950012207031 381.14700000000005,649.0950012207031 zM372.38800000000003,662.1540012207031 C372.38800000000003,657.1280012207031 376.38300000000004,653.1860012207031 381.14700000000005,653.1860012207031 C384.53999999999996,653.1860012207031 387.534,655.1750012207032 388.985,658.1420012207032 C386.365,660.0130012207031 384.21799999999996,662.4670012207031 382.75300000000004,665.3110012207031 C382.65200000000004,665.5050012207031 382.55499999999995,665.7010012207031 382.462,665.8990012207031 C382.275,665.8310012207031 382.087,665.7670012207032 381.89700000000005,665.7060012207031 C380.39200000000005,665.2230012207032 378.784,664.9620012207031 377.116,664.9620012207031 C375.69899999999996,664.9620012207031 374.32399999999996,665.1500012207031 373.019,665.5040012207031 C372.61199999999997,664.4720012207031 372.38800000000003,663.3420012207031 372.38800000000003,662.1540012207031 z" fill="url(#paint10_linear_0_1)" class="" id="svg_3"/><path fill-rule="evenodd" clip-rule="evenodd" d="M260.14700000000005,649.0950012207031 C265.154,649.0950012207031 269.448,651.9490012207032 271.60400000000004,656.0700012207031 C274.25,654.8880012207031 277.197,654.2290012207031 280.302,654.2290012207031 C291.701,654.2290012207031 301,663.1220012207032 301,674.1620012207031 C301,685.2020012207031 291.70000000000005,694.0950012207031 280.302,694.0950012207031 L256.116,694.0950012207031 C247.79999999999995,694.0950012207031 241,687.6050012207031 241,679.5280012207031 C241,674.2760012207032 243.88099999999997,669.6920012207031 248.17499999999995,667.1320012207032 C247.54700000000003,665.5950012207031 247.202,663.9130012207031 247.202,662.1540012207031 C247.202,655.0150012207031 252.92399999999998,649.0950012207031 260.14700000000005,649.0950012207031 zM251.38800000000003,662.1540012207031 C251.38800000000003,657.1280012207031 255.38300000000004,653.1860012207031 260.14700000000005,653.1860012207031 C263.53999999999996,653.1860012207031 266.534,655.1750012207032 267.985,658.1420012207032 C265.365,660.0130012207031 263.21799999999996,662.4670012207031 261.75300000000004,665.3110012207031 C261.65200000000004,665.5050012207031 261.55499999999995,665.7010012207031 261.462,665.8990012207031 C261.275,665.8310012207031 261.087,665.7670012207032 260.89700000000005,665.7060012207031 C259.39200000000005,665.2230012207032 257.784,664.9620012207031 256.116,664.9620012207031 C254.69899999999996,664.9620012207031 253.32399999999996,665.1500012207031 252.019,665.5040012207031 C251.61199999999997,664.4720012207031 251.38800000000003,663.3420012207031 251.38800000000003,662.1540012207031 z" fill="#FCA311" id="svg_340" class=""/><path fill-rule="evenodd" clip-rule="evenodd" d="M260.14700000000005,649.0950012207031 C265.154,649.0950012207031 269.448,651.9490012207032 271.60400000000004,656.0700012207031 C274.25,654.8880012207031 277.197,654.2290012207031 280.302,654.2290012207031 C291.701,654.2290012207031 301,663.1220012207032 301,674.1620012207031 C301,685.2020012207031 291.70000000000005,694.0950012207031 280.302,694.0950012207031 L256.116,694.0950012207031 C247.79999999999995,694.0950012207031 241,687.6050012207031 241,679.5280012207031 C241,674.2760012207032 243.88099999999997,669.6920012207031 248.17499999999995,667.1320012207032 C247.54700000000003,665.5950012207031 247.202,663.9130012207031 247.202,662.1540012207031 C247.202,655.0150012207031 252.92399999999998,649.0950012207031 260.14700000000005,649.0950012207031 zM251.38800000000003,662.1540012207031 C251.38800000000003,657.1280012207031 255.38300000000004,653.1860012207031 260.14700000000005,653.1860012207031 C263.53999999999996,653.1860012207031 266.534,655.1750012207032 267.985,658.1420012207032 C265.365,660.0130012207031 263.21799999999996,662.4670012207031 261.75300000000004,665.3110012207031 C261.65200000000004,665.5050012207031 261.55499999999995,665.7010012207031 261.462,665.8990012207031 C261.275,665.8310012207031 261.087,665.7670012207032 260.89700000000005,665.7060012207031 C259.39200000000005,665.2230012207032 257.784,664.9620012207031 256.116,664.9620012207031 C254.69899999999996,664.9620012207031 253.32399999999996,665.1500012207031 252.019,665.5040012207031 C251.61199999999997,664.4720012207031 251.38800000000003,663.3420012207031 251.38800000000003,662.1540012207031 z" fill="url(#paint11_linear_0_1)" id="svg_341" class=""/><circle cx="96" cy="737.094970703125" r="16" fill="#FCA311" id="svg_342" class=""/><circle cx="96" cy="737.094970703125" r="16" fill="url(#paint12_linear_0_1)" id="svg_343" class=""/><path d="M91.19299999999998,741.0950012207031 V738.1070012207031 L88.37299999999999,732.6950012207031 H90.113 L91.97300000000001,736.5710012207031 L93.82100000000003,732.6950012207031 H95.53699999999998 L92.72899999999998,738.1070012207031 V741.0950012207031 H91.19299999999998 zM98.47699999999998,741.0950012207031 V733.9310012207031 H96.029 V732.6950012207031 H102.47300000000001 V733.9310012207031 H100.01299999999998 V741.0950012207031 H98.47699999999998 z" fill="white" id="svg_344" class=""/><circle cx="136" cy="737.094970703125" r="16" fill="#FCA311" id="svg_345" class=""/><circle cx="136" cy="737.094970703125" r="16" fill="url(#paint13_linear_0_1)" id="svg_346" class=""/><path d="M131.92899999999997,741.0950012207031 V732.6950012207031 H133.46499999999997 V739.8950012207031 H137.185 V741.0950012207031 H131.92899999999997 zM138.539,741.0950012207031 V732.6950012207031 H140.075 V741.0950012207031 H138.539 z" fill="white" id="svg_347" class=""/><circle cx="56" cy="737.094970703125" r="16" fill="#FCA311" id="svg_348" class=""/><circle cx="56" cy="737.094970703125" r="16" fill="url(#paint14_linear_0_1)" id="svg_349" class=""/><path d="M49.815999999999974,741.0950012207031 V732.6950012207031 H51.351999999999975 V741.0950012207031 H49.815999999999974 zM56.65199999999999,741.2390012207031 C55.860000000000014,741.2390012207031 55.168000000000006,741.0590012207032 54.57600000000002,740.6990012207032 C53.98399999999998,740.3390012207032 53.524,739.8390012207032 53.196000000000026,739.1990012207032 C52.867999999999995,738.5510012207031 52.70400000000001,737.7990012207031 52.70400000000001,736.9430012207031 C52.70400000000001,736.0790012207032 52.872000000000014,735.3190012207032 53.20800000000003,734.6630012207031 C53.55200000000002,733.9990012207031 54.036,733.4830012207032 54.660000000000025,733.1150012207031 C55.29199999999997,732.7390012207031 56.04000000000002,732.5510012207031 56.903999999999996,732.5510012207031 C57.88799999999998,732.5510012207031 58.70400000000001,732.7870012207031 59.351999999999975,733.2590012207031 C60,733.7310012207031 60.420000000000016,734.3830012207031 60.61200000000002,735.2150012207031 H58.896000000000015 C58.76799999999997,734.8230012207031 58.536,734.5190012207031 58.19999999999999,734.3030012207031 C57.863999999999976,734.0790012207032 57.432000000000016,733.9670012207031 56.903999999999996,733.9670012207031 C56.06400000000002,733.9670012207031 55.416,734.2350012207031 54.95999999999998,734.7710012207032 C54.50400000000002,735.2990012207031 54.27600000000001,736.0270012207031 54.27600000000001,736.9550012207031 C54.27600000000001,737.8830012207031 54.5,738.6030012207032 54.94799999999998,739.1150012207031 C55.403999999999996,739.6190012207031 56.01999999999998,739.8710012207031 56.79599999999999,739.8710012207031 C57.55599999999998,739.8710012207031 58.127999999999986,739.6670012207031 58.512,739.2590012207031 C58.903999999999996,738.8430012207032 59.139999999999986,738.2990012207031 59.22000000000003,737.6270012207032 H57.096000000000004 V736.4750012207031 H60.76799999999997 V741.0950012207031 H59.351999999999975 L59.23200000000003,739.9910012207031 C58.95999999999998,740.3910012207032 58.620000000000005,740.6990012207032 58.21199999999999,740.9150012207032 C57.803999999999974,741.1310012207031 57.28399999999999,741.2390012207031 56.65199999999999,741.2390012207031 z" fill="white" id="svg_350" class=""/><circle cx="16" cy="737.094970703125" r="16" fill="#FCA311" id="svg_351" class=""/><circle cx="16" cy="737.094970703125" r="16" fill="url(#paint15_linear_0_1)" id="svg_352" class=""/><path d="M8.815999999999974,741.0950012207031 V732.6950012207031 H14.240000000000009 V733.9310012207031 H10.351999999999975 V736.2830012207031 H13.495999999999981 V737.4950012207031 H10.351999999999975 V741.0950012207031 H8.815999999999974 zM15.425000000000011,741.0950012207031 V732.6950012207031 H18.797000000000025 C19.668999999999983,732.6950012207031 20.333000000000027,732.8990012207031 20.788999999999987,733.3070012207031 C21.252999999999986,733.7070012207031 21.485000000000014,734.2230012207032 21.485000000000014,734.8550012207031 C21.485000000000014,735.3830012207031 21.341000000000008,735.8070012207031 21.052999999999997,736.1270012207032 C20.773000000000025,736.4390012207032 20.428999999999974,736.6510012207032 20.021000000000015,736.7630012207031 C20.500999999999976,736.8590012207031 20.89699999999999,737.0990012207031 21.209000000000003,737.4830012207032 C21.521000000000015,737.8590012207031 21.67700000000002,738.2990012207031 21.67700000000002,738.8030012207031 C21.67700000000002,739.4670012207031 21.437000000000012,740.0150012207031 20.956999999999994,740.4470012207031 C20.476999999999975,740.8790012207031 19.797000000000025,741.0950012207031 18.916999999999973,741.0950012207031 H15.425000000000011 zM16.961000000000013,736.2230012207032 H18.569000000000017 C19.000999999999976,736.2230012207032 19.333000000000027,736.1230012207031 19.564999999999998,735.9230012207031 C19.797000000000025,735.7230012207032 19.91300000000001,735.4390012207032 19.91300000000001,735.0710012207031 C19.91300000000001,734.7190012207031 19.797000000000025,734.4430012207031 19.564999999999998,734.2430012207031 C19.341000000000008,734.0350012207032 19.000999999999976,733.9310012207031 18.545000000000016,733.9310012207031 H16.961000000000013 V736.2230012207032 zM16.961000000000013,739.8470012207031 H18.67700000000002 C19.13299999999998,739.8470012207031 19.485000000000014,739.7430012207031 19.733000000000004,739.5350012207032 C19.988999999999976,739.3190012207032 20.11700000000002,739.0190012207031 20.11700000000002,738.6350012207031 C20.11700000000002,738.2430012207031 19.985000000000014,737.9350012207032 19.721000000000004,737.7110012207031 C19.456999999999994,737.4870012207032 19.101,737.3750012207031 18.65300000000002,737.3750012207031 H16.961000000000013 V739.8470012207031 z" fill="white" id="svg_353" class=""/></g></svg>