<svg xmlns="http://www.w3.org/2000/svg" width="56.000000397364374" height="59" fill="none" style=""><rect id="backgroundrect" width="100%" height="100%" x="0" y="0" fill="none" stroke="none" class="selected" style=""/>
























































































































































<defs>
<linearGradient id="paint0_linear_0_1" x1="-0.06654699891805649" y1="-0.015409188345074654" x2="1.3457750082015991" y2="3.978269577026367">
<stop stop-color="#09C6F9"/>
<stop offset="1" stop-color="#045DE9"/>
</linearGradient>
<linearGradient id="paint1_linear_0_1" x1="-1.1734251976013184" y1="-0.007460176013410091" x2="0.1507825255393982" y2="1.9260320663452148">
<stop stop-color="#09C6F9"/>
<stop offset="1" stop-color="#045DE9"/>
</linearGradient>
<linearGradient id="paint2_linear_0_1" x1="-1.2515062093734741" y1="-2.3473527431488037" x2="0.1608157604932785" y2="1.6463258266448975">
<stop stop-color="#09C6F9"/>
<stop offset="1" stop-color="#045DE9"/>
</linearGradient>
<linearGradient id="paint3_linear_0_1" x1="-0.000005527320354303811" y1="-0.6205812096595764" x2="1.3242021799087524" y2="1.312911033630371">
<stop stop-color="#09C6F9"/>
<stop offset="1" stop-color="#045DE9"/>
</linearGradient>
<linearGradient id="paint4_linear_0_1" x1="0.000011910007742699236" y1="-0.010817265138030052" x2="1.4266819953918457" y2="2.7958357334136963">
<stop stop-color="#09C6F9"/>
<stop offset="1" stop-color="#045DE9"/>
</linearGradient>
<linearGradient id="paint5_linear_0_1" x1="0.000011910007742699236" y1="-1.3524439334869385" x2="1.4266819953918457" y2="1.4542089700698853">
<stop stop-color="#09C6F9"/>
<stop offset="1" stop-color="#045DE9"/>
</linearGradient>
<linearGradient id="paint6_linear_0_1" x1="-1.3416147232055664" y1="-0.010817265138030052" x2="0.08505532145500183" y2="2.7958357334136963">
<stop stop-color="#09C6F9"/>
<stop offset="1" stop-color="#045DE9"/>
</linearGradient>
<linearGradient id="paint7_linear_0_1" x1="-1.3416147232055664" y1="-1.3524439334869385" x2="0.08505532145500183" y2="1.4542089700698853">
<stop stop-color="#09C6F9"/>
<stop offset="1" stop-color="#045DE9"/>
</linearGradient>
<linearGradient id="paint8_linear_0_1" x1="0.0000050862113312177826" y1="-0.004626683425158262" x2="0.8736623525619507" y2="1.0595905780792236">
<stop stop-color="#09C6F9"/>
<stop offset="1" stop-color="#045DE9"/>
</linearGradient>
<linearGradient id="paint9_linear_0_1" x1="0.0000050862113312177826" y1="-0.004619551356881857" x2="0.6092696189880371" y2="1.1939715147018433">
<stop stop-color="#09C6F9"/>
<stop offset="1" stop-color="#045DE9"/>
</linearGradient>
<linearGradient id="paint10_linear_0_1" x1="0" y1="-0.004622395616024733" x2="0.3765502870082855" y2="1.3122884035110474">
<stop stop-color="#09C6F9"/>
<stop offset="1" stop-color="#045DE9"/>
</linearGradient>
<linearGradient id="paint11_linear_0_1" x1="0" y1="-0.004622395616024733" x2="0.3765502870082855" y2="1.3122884035110474">
<stop stop-color="#09C6F9"/>
<stop offset="1" stop-color="#045DE9"/>
</linearGradient>
<linearGradient id="paint12_linear_0_1" x1="0" y1="-0.0046253204345703125" x2="0.6092815399169922" y2="1.1939678192138672">
<stop stop-color="#09C6F9"/>
<stop offset="1" stop-color="#045DE9"/>
</linearGradient>
<linearGradient id="paint13_linear_0_1" x1="0" y1="-0.0046253204345703125" x2="0.6092815399169922" y2="1.1939678192138672">
<stop stop-color="#09C6F9"/>
<stop offset="1" stop-color="#045DE9"/>
</linearGradient>
<linearGradient id="paint14_linear_0_1" x1="0" y1="-0.0046253204345703125" x2="0.6092815399169922" y2="1.1939678192138672">
<stop stop-color="#09C6F9"/>
<stop offset="1" stop-color="#045DE9"/>
</linearGradient>
<linearGradient id="paint15_linear_0_1" x1="0" y1="-0.0046253204345703125" x2="0.6092815399169922" y2="1.1939678192138672">
<stop stop-color="#09C6F9"/>
<stop offset="1" stop-color="#045DE9"/>
</linearGradient>
<clipPath id="clip0_0_1">
<rect width="544" height="420" fill="white" y="39" x="0" id="svg_1"/>
</clipPath>
</defs>
<g class="currentLayer" style=""><title>Layer 1</title><path d="M27.08503051757816,7.000041961669922 V21.40604196166987 H6.378030517578168 C8.56503051757818,14.668041961669928 14.11603051757811,9.503041961669965 21.079030517578076,7.866041961669907 C23.059030517578094,7.400041961669899 25.06803051757811,7.112041961669888 27.08503051757816,7.000041961669922 z" fill="#FCA311" id="svg_318" class=""/><path d="M27.08503051757816,7.000041961669922 V21.40604196166987 H6.378030517578168 C8.56503051757818,14.668041961669928 14.11603051757811,9.503041961669965 21.079030517578076,7.866041961669907 C23.059030517578094,7.400041961669899 25.06803051757811,7.112041961669888 27.08503051757816,7.000041961669922 z" fill="url(#paint0_linear_0_1)" id="svg_319" class=""/><path d="M30.91503051757809,7.000041961669922 V36.756041961669894 H52.52103051757808 C53.282030517578164,32.215041961669954 53.13603051757809,27.560041961669867 52.083030517578095,23.062041961669934 C50.319030517578085,15.52204196166997 44.444030517578085,9.634041961669936 36.921030517578174,7.866041961669907 C34.94203051757813,7.400041961669899 32.93203051757814,7.112041961669888 30.91503051757809,7.000041961669922 z" fill="#FCA311" id="svg_320" class=""/><path d="M30.91503051757809,7.000041961669922 V36.756041961669894 H52.52103051757808 C53.282030517578164,32.215041961669954 53.13603051757809,27.560041961669867 52.083030517578095,23.062041961669934 C50.319030517578085,15.52204196166997 44.444030517578085,9.634041961669936 36.921030517578174,7.866041961669907 C34.94203051757813,7.400041961669899 32.93203051757814,7.112041961669888 30.91503051757809,7.000041961669922 z" fill="url(#paint1_linear_0_1)" id="svg_321" class=""/><path d="M51.62203051757808,40.59404196166997 H30.91503051757809 V55.00004196166992 C32.93203051757814,54.888041961669956 34.94203051757813,54.600041961669945 36.921030517578174,54.134041961669936 C43.88403051757814,52.49704196166988 49.43503051757807,47.332041961669916 51.62203051757808,40.59404196166997 z" fill="#FCA311" id="svg_322" class=""/><path d="M51.62203051757808,40.59404196166997 H30.91503051757809 V55.00004196166992 C32.93203051757814,54.888041961669956 34.94203051757813,54.600041961669945 36.921030517578174,54.134041961669936 C43.88403051757814,52.49704196166988 49.43503051757807,47.332041961669916 51.62203051757808,40.59404196166997 z" fill="url(#paint2_linear_0_1)" id="svg_323" class=""/><path d="M27.08503051757816,55.00004196166992 V25.24404196166995 H5.479030517578167 C4.718030517578086,29.78504196166989 4.864030517578158,34.440041961669976 5.917030517578155,38.93804196166991 C7.681030517578165,46.478041961669874 13.556030517578165,52.36604196166991 21.079030517578076,54.134041961669936 C23.059030517578094,54.600041961669945 25.06803051757811,54.888041961669956 27.08503051757816,55.00004196166992 z" fill="#FCA311" id="svg_324" class=""/><path d="M27.08503051757816,55.00004196166992 V25.24404196166995 H5.479030517578167 C4.718030517578086,29.78504196166989 4.864030517578158,34.440041961669976 5.917030517578155,38.93804196166991 C7.681030517578165,46.478041961669874 13.556030517578165,52.36604196166991 21.079030517578076,54.134041961669936 C23.059030517578094,54.600041961669945 25.06803051757811,54.888041961669956 27.08503051757816,55.00004196166992 z" fill="url(#paint3_linear_0_1)" id="svg_325" class=""/><path d="M329.5096755676269,17.41603051757818 C327.145675567627,16.861030517578115 324.68567556762696,16.861030517578115 322.3216755676269,17.41603051757818 C319.2256755676269,18.142030517578178 316.808675567627,20.559030517578094 316.082675567627,23.655030517578098 C315.52767556762694,26.01903051757813 315.52767556762694,28.479030517578167 316.082675567627,30.843030517578086 C316.808675567627,33.93903051757809 319.2256755676269,36.357030517578096 322.3216755676269,37.083030517578095 C324.68567556762696,37.63703051757807 327.145675567627,37.63703051757807 329.5096755676269,37.083030517578095 C332.6056755676269,36.357030517578096 335.0236755676269,33.93903051757809 335.7496755676269,30.843030517578086 C336.3036755676269,28.479030517578167 336.3036755676269,26.01903051757813 335.7496755676269,23.655030517578098 C335.0236755676269,20.559030517578094 332.6056755676269,18.142030517578178 329.5096755676269,17.41603051757818 z" fill="#FCA311" id="svg_326" class=""/><path d="M329.5096755676269,17.41603051757818 C327.145675567627,16.861030517578115 324.68567556762696,16.861030517578115 322.3216755676269,17.41603051757818 C319.2256755676269,18.142030517578178 316.808675567627,20.559030517578094 316.082675567627,23.655030517578098 C315.52767556762694,26.01903051757813 315.52767556762694,28.479030517578167 316.082675567627,30.843030517578086 C316.808675567627,33.93903051757809 319.2256755676269,36.357030517578096 322.3216755676269,37.083030517578095 C324.68567556762696,37.63703051757807 327.145675567627,37.63703051757807 329.5096755676269,37.083030517578095 C332.6056755676269,36.357030517578096 335.0236755676269,33.93903051757809 335.7496755676269,30.843030517578086 C336.3036755676269,28.479030517578167 336.3036755676269,26.01903051757813 335.7496755676269,23.655030517578098 C335.0236755676269,20.559030517578094 332.6056755676269,18.142030517578178 329.5096755676269,17.41603051757818 z" fill="url(#paint4_linear_0_1)" id="svg_327" class=""/><path d="M329.5096755676269,44.917030517578155 C327.145675567627,44.36303051757818 324.68567556762696,44.36303051757818 322.3216755676269,44.917030517578155 C319.2256755676269,45.643030517578154 316.808675567627,48.06103051757816 316.082675567627,51.157030517578164 C315.52767556762694,53.52103051757808 315.52767556762694,55.98103051757812 316.082675567627,58.34503051757815 C316.808675567627,61.441030517578156 319.2256755676269,63.85803051757807 322.3216755676269,64.58403051757807 C324.68567556762696,65.13903051757814 327.145675567627,65.13903051757814 329.5096755676269,64.58403051757807 C332.6056755676269,63.85803051757807 335.0236755676269,61.441030517578156 335.7496755676269,58.34503051757815 C336.3036755676269,55.98103051757812 336.3036755676269,53.52103051757808 335.7496755676269,51.157030517578164 C335.0236755676269,48.06103051757816 332.6056755676269,45.643030517578154 329.5096755676269,44.917030517578155 z" fill="#FCA311" id="svg_328" class=""/><path d="M329.5096755676269,44.917030517578155 C327.145675567627,44.36303051757818 324.68567556762696,44.36303051757818 322.3216755676269,44.917030517578155 C319.2256755676269,45.643030517578154 316.808675567627,48.06103051757816 316.082675567627,51.157030517578164 C315.52767556762694,53.52103051757808 315.52767556762694,55.98103051757812 316.082675567627,58.34503051757815 C316.808675567627,61.441030517578156 319.2256755676269,63.85803051757807 322.3216755676269,64.58403051757807 C324.68567556762696,65.13903051757814 327.145675567627,65.13903051757814 329.5096755676269,64.58403051757807 C332.6056755676269,63.85803051757807 335.0236755676269,61.441030517578156 335.7496755676269,58.34503051757815 C336.3036755676269,55.98103051757812 336.3036755676269,53.52103051757808 335.7496755676269,51.157030517578164 C335.0236755676269,48.06103051757816 332.6056755676269,45.643030517578154 329.5096755676269,44.917030517578155 z" fill="url(#paint5_linear_0_1)" id="svg_329" class=""/><path d="M357.011675567627,17.41603051757818 C354.64767556762695,16.861030517578115 352.1876755676269,16.861030517578115 349.823675567627,17.41603051757818 C346.727675567627,18.142030517578178 344.309675567627,20.559030517578094 343.583675567627,23.655030517578098 C343.029675567627,26.01903051757813 343.029675567627,28.479030517578167 343.583675567627,30.843030517578086 C344.309675567627,33.93903051757809 346.727675567627,36.357030517578096 349.823675567627,37.083030517578095 C352.1876755676269,37.63703051757807 354.64767556762695,37.63703051757807 357.011675567627,37.083030517578095 C360.107675567627,36.357030517578096 362.5246755676269,33.93903051757809 363.2506755676269,30.843030517578086 C363.80567556762696,28.479030517578167 363.80567556762696,26.01903051757813 363.2506755676269,23.655030517578098 C362.5246755676269,20.559030517578094 360.107675567627,18.142030517578178 357.011675567627,17.41603051757818 z" fill="#FCA311" id="svg_330" class=""/><path d="M357.011675567627,17.41603051757818 C354.64767556762695,16.861030517578115 352.1876755676269,16.861030517578115 349.823675567627,17.41603051757818 C346.727675567627,18.142030517578178 344.309675567627,20.559030517578094 343.583675567627,23.655030517578098 C343.029675567627,26.01903051757813 343.029675567627,28.479030517578167 343.583675567627,30.843030517578086 C344.309675567627,33.93903051757809 346.727675567627,36.357030517578096 349.823675567627,37.083030517578095 C352.1876755676269,37.63703051757807 354.64767556762695,37.63703051757807 357.011675567627,37.083030517578095 C360.107675567627,36.357030517578096 362.5246755676269,33.93903051757809 363.2506755676269,30.843030517578086 C363.80567556762696,28.479030517578167 363.80567556762696,26.01903051757813 363.2506755676269,23.655030517578098 C362.5246755676269,20.559030517578094 360.107675567627,18.142030517578178 357.011675567627,17.41603051757818 z" fill="url(#paint6_linear_0_1)" id="svg_331" class=""/><path d="M357.011675567627,44.917030517578155 C354.64767556762695,44.36303051757818 352.1876755676269,44.36303051757818 349.823675567627,44.917030517578155 C346.727675567627,45.643030517578154 344.309675567627,48.06103051757816 343.583675567627,51.157030517578164 C343.029675567627,53.52103051757808 343.029675567627,55.98103051757812 343.583675567627,58.34503051757815 C344.309675567627,61.441030517578156 346.727675567627,63.85803051757807 349.823675567627,64.58403051757807 C352.1876755676269,65.13903051757814 354.64767556762695,65.13903051757814 357.011675567627,64.58403051757807 C360.107675567627,63.85803051757807 362.5246755676269,61.441030517578156 363.2506755676269,58.34503051757815 C363.80567556762696,55.98103051757812 363.80567556762696,53.52103051757808 363.2506755676269,51.157030517578164 C362.5246755676269,48.06103051757816 360.107675567627,45.643030517578154 357.011675567627,44.917030517578155 z" fill="#FCA311" id="svg_332" class=""/><path d="M357.011675567627,44.917030517578155 C354.64767556762695,44.36303051757818 352.1876755676269,44.36303051757818 349.823675567627,44.917030517578155 C346.727675567627,45.643030517578154 344.309675567627,48.06103051757816 343.583675567627,51.157030517578164 C343.029675567627,53.52103051757808 343.029675567627,55.98103051757812 343.583675567627,58.34503051757815 C344.309675567627,61.441030517578156 346.727675567627,63.85803051757807 349.823675567627,64.58403051757807 C352.1876755676269,65.13903051757814 354.64767556762695,65.13903051757814 357.011675567627,64.58403051757807 C360.107675567627,63.85803051757807 362.5246755676269,61.441030517578156 363.2506755676269,58.34503051757815 C363.80567556762696,55.98103051757812 363.80567556762696,53.52103051757808 363.2506755676269,51.157030517578164 C362.5246755676269,48.06103051757816 360.107675567627,45.643030517578154 357.011675567627,44.917030517578155 z" fill="url(#paint7_linear_0_1)" id="svg_333" class=""/><path fill-rule="evenodd" clip-rule="evenodd" d="M550.92 905.485L549.522 905.793V907.652C549.522 910.839 547.518 913.55 544.722 914.555V919.56C544.722 920.908 543.647 922 542.322 922C540.996 922 539.921 920.908 539.921 919.56V914.555C537.125 913.55 535.121 910.839 535.121 907.652V905.929C534.913 905.887 534.704 905.843 534.496 905.797L533.08 905.485C526.17 903.963 520.702 898.597 518.962 891.63C517.679 886.496 517.679 881.118 518.962 875.984C520.702 869.018 526.17 863.651 533.08 862.129L534.496 861.817C539.441 860.728 544.559 860.728 549.504 861.817L550.92 862.129C557.83 863.651 563.298 869.018 565.038 875.985C566.321 881.118 566.321 886.496 565.038 891.63C563.298 898.597 557.83 903.963 550.92 905.485ZM544.722 906.508C544.443 906.53 544.165 906.548 543.886 906.563C542.565 906.635 541.242 906.631 539.921 906.552V907.652C539.921 908.999 540.996 910.092 542.322 910.092C543.647 910.092 544.722 908.999 544.722 907.652V906.508ZM544.801 874.116C545.629 874.789 545.764 876.018 545.101 876.859L541.196 881.821H546.802C547.54 881.821 548.213 882.251 548.533 882.928C548.852 883.604 548.762 884.407 548.301 884.993L541.901 893.126C541.238 893.968 540.03 894.104 539.202 893.431C538.374 892.757 538.24 891.529 538.902 890.687L542.807 885.725H537.201C536.463 885.725 535.79 885.295 535.471 884.619C535.151 883.943 535.241 883.14 535.702 882.554L542.102 874.421C542.765 873.579 543.973 873.442 544.801 874.116Z" fill="#FCA311" id="svg_334" class=""/><path fill-rule="evenodd" clip-rule="evenodd" d="M550.92 905.485L549.522 905.793V907.652C549.522 910.839 547.518 913.55 544.722 914.555V919.56C544.722 920.908 543.647 922 542.322 922C540.996 922 539.921 920.908 539.921 919.56V914.555C537.125 913.55 535.121 910.839 535.121 907.652V905.929C534.913 905.887 534.704 905.843 534.496 905.797L533.08 905.485C526.17 903.963 520.702 898.597 518.962 891.63C517.679 886.496 517.679 881.118 518.962 875.984C520.702 869.018 526.17 863.651 533.08 862.129L534.496 861.817C539.441 860.728 544.559 860.728 549.504 861.817L550.92 862.129C557.83 863.651 563.298 869.018 565.038 875.985C566.321 881.118 566.321 886.496 565.038 891.63C563.298 898.597 557.83 903.963 550.92 905.485ZM544.722 906.508C544.443 906.53 544.165 906.548 543.886 906.563C542.565 906.635 541.242 906.631 539.921 906.552V907.652C539.921 908.999 540.996 910.092 542.322 910.092C543.647 910.092 544.722 908.999 544.722 907.652V906.508ZM544.801 874.116C545.629 874.789 545.764 876.018 545.101 876.859L541.196 881.821H546.802C547.54 881.821 548.213 882.251 548.533 882.928C548.852 883.604 548.762 884.407 548.301 884.993L541.901 893.126C541.238 893.968 540.03 894.104 539.202 893.431C538.374 892.757 538.24 891.529 538.902 890.687L542.807 885.725H537.201C536.463 885.725 535.79 885.295 535.471 884.619C535.151 883.943 535.241 883.14 535.702 882.554L542.102 874.421C542.765 873.579 543.973 873.442 544.801 874.116Z" fill="url(#paint8_linear_0_1)" id="svg_335" class=""/><path fill-rule="evenodd" clip-rule="evenodd" d="M452.7456870117187,74.91700000000003 C457.95568701171874,73.69399999999996 463.37768701171876,73.69399999999996 468.5876870117188,74.91700000000003 C476.1106870117187,76.68100000000004 481.9856870117187,82.55600000000004 483.7496870117187,90.07899999999995 C484.9726870117188,95.28899999999999 484.9726870117188,100.71100000000001 483.7496870117187,105.92100000000005 C481.9856870117187,113.44399999999996 476.1106870117187,119.31899999999996 468.5876870117188,121.08299999999997 C463.37768701171876,122.30600000000004 457.95568701171874,122.30600000000004 452.7456870117187,121.08299999999997 C445.2226870117188,119.31899999999996 439.3476870117188,113.44399999999996 437.5836870117188,105.92100000000005 C436.3606870117187,100.71100000000001 436.3606870117187,95.28899999999999 437.5836870117188,90.07899999999995 C439.3476870117188,82.55600000000004 445.2226870117188,76.68100000000004 452.7456870117187,74.91700000000003 zM464.6396870117187,92.70000000000005 C465.47368701171877,92.36599999999999 466.30068701171876,93.19299999999998 465.9676870117188,94.02700000000004 L463.8866870117188,99.22900000000004 C463.5236870117187,100.13699999999994 462.8036870117187,100.856 461.8956870117188,101.22000000000003 L456.6936870117188,103.29999999999995 C455.8606870117187,103.63400000000001 455.03268701171874,102.80700000000002 455.3666870117188,101.97299999999996 L457.4476870117187,96.77099999999996 C457.81068701171876,95.86300000000006 458.5296870117188,95.144 459.4386870117188,94.77999999999997 L464.6396870117187,92.70000000000005 zM468.81168701171873,95.16499999999996 C470.1456870117188,91.83000000000004 466.8366870117187,88.52200000000005 463.50268701171876,89.85500000000002 L458.30068701171876,91.93600000000004 C456.61368701171875,92.61099999999999 455.27768701171874,93.947 454.6026870117188,95.63400000000001 L452.52268701171874,100.83500000000004 C451.1886870117188,104.16999999999996 454.49768701171877,107.47799999999995 457.8316870117187,106.14499999999998 L463.0336870117187,104.06399999999996 C464.71968701171875,103.38900000000001 466.05668701171874,102.053 466.7306870117187,100.36599999999999 L468.81168701171873,95.16499999999996 z" fill="#FCA311" id="svg_336" class=""/><path fill-rule="evenodd" clip-rule="evenodd" d="M452.7456870117187,74.91700000000003 C457.95568701171874,73.69399999999996 463.37768701171876,73.69399999999996 468.5876870117188,74.91700000000003 C476.1106870117187,76.68100000000004 481.9856870117187,82.55600000000004 483.7496870117187,90.07899999999995 C484.9726870117188,95.28899999999999 484.9726870117188,100.71100000000001 483.7496870117187,105.92100000000005 C481.9856870117187,113.44399999999996 476.1106870117187,119.31899999999996 468.5876870117188,121.08299999999997 C463.37768701171876,122.30600000000004 457.95568701171874,122.30600000000004 452.7456870117187,121.08299999999997 C445.2226870117188,119.31899999999996 439.3476870117188,113.44399999999996 437.5836870117188,105.92100000000005 C436.3606870117187,100.71100000000001 436.3606870117187,95.28899999999999 437.5836870117188,90.07899999999995 C439.3476870117188,82.55600000000004 445.2226870117188,76.68100000000004 452.7456870117187,74.91700000000003 zM464.6396870117187,92.70000000000005 C465.47368701171877,92.36599999999999 466.30068701171876,93.19299999999998 465.9676870117188,94.02700000000004 L463.8866870117188,99.22900000000004 C463.5236870117187,100.13699999999994 462.8036870117187,100.856 461.8956870117188,101.22000000000003 L456.6936870117188,103.29999999999995 C455.8606870117187,103.63400000000001 455.03268701171874,102.80700000000002 455.3666870117188,101.97299999999996 L457.4476870117187,96.77099999999996 C457.81068701171876,95.86300000000006 458.5296870117188,95.144 459.4386870117188,94.77999999999997 L464.6396870117187,92.70000000000005 zM468.81168701171873,95.16499999999996 C470.1456870117188,91.83000000000004 466.8366870117187,88.52200000000005 463.50268701171876,89.85500000000002 L458.30068701171876,91.93600000000004 C456.61368701171875,92.61099999999999 455.27768701171874,93.947 454.6026870117188,95.63400000000001 L452.52268701171874,100.83500000000004 C451.1886870117188,104.16999999999996 454.49768701171877,107.47799999999995 457.8316870117187,106.14499999999998 L463.0336870117187,104.06399999999996 C464.71968701171875,103.38900000000001 466.05668701171874,102.053 466.7306870117187,100.36599999999999 L468.81168701171873,95.16499999999996 z" fill="url(#paint9_linear_0_1)" id="svg_337" class=""/><path fill-rule="evenodd" clip-rule="evenodd" d="M652.147 771C657.154 771 661.448 773.854 663.604 777.975C666.25 776.793 669.197 776.134 672.302 776.134C683.701 776.134 693 785.027 693 796.067C693 807.107 683.7 816 672.302 816L648.116 816C639.8 816 633 809.51 633 801.433C633 796.181 635.881 791.597 640.175 789.037C639.547 787.5 639.202 785.818 639.202 784.059C639.202 776.92 644.924 771 652.147 771ZM643.388 784.059C643.388 779.033 647.383 775.091 652.147 775.091C655.54 775.091 658.534 777.08 659.985 780.047C657.365 781.918 655.218 784.372 653.753 787.216C653.652 787.41 653.555 787.606 653.462 787.804C653.275 787.736 653.087 787.672 652.897 787.611C651.392 787.128 649.784 786.867 648.116 786.867C646.699 786.867 645.324 787.055 644.019 787.409C643.612 786.377 643.388 785.247 643.388 784.059Z" fill="#FCA311" id="svg_338" class=""/><path fill-rule="evenodd" clip-rule="evenodd" d="M531.147 771C536.154 771 540.448 773.854 542.604 777.975C545.25 776.793 548.197 776.134 551.302 776.134C562.701 776.134 572 785.027 572 796.067C572 807.107 562.7 816 551.302 816L527.116 816C518.8 816 512 809.51 512 801.433C512 796.181 514.881 791.597 519.175 789.037C518.547 787.5 518.202 785.818 518.202 784.059C518.202 776.92 523.924 771 531.147 771ZM522.388 784.059C522.388 779.033 526.383 775.091 531.147 775.091C534.54 775.091 537.534 777.08 538.985 780.047C536.365 781.918 534.218 784.372 532.753 787.216C532.652 787.41 532.555 787.606 532.462 787.804C532.275 787.736 532.087 787.672 531.897 787.611C530.392 787.128 528.784 786.867 527.116 786.867C525.699 786.867 524.324 787.055 523.019 787.409C522.612 786.377 522.388 785.247 522.388 784.059Z" fill="#FCA311" id="svg_340" class=""/><path fill-rule="evenodd" clip-rule="evenodd" d="M531.147 771C536.154 771 540.448 773.854 542.604 777.975C545.25 776.793 548.197 776.134 551.302 776.134C562.701 776.134 572 785.027 572 796.067C572 807.107 562.7 816 551.302 816L527.116 816C518.8 816 512 809.51 512 801.433C512 796.181 514.881 791.597 519.175 789.037C518.547 787.5 518.202 785.818 518.202 784.059C518.202 776.92 523.924 771 531.147 771ZM522.388 784.059C522.388 779.033 526.383 775.091 531.147 775.091C534.54 775.091 537.534 777.08 538.985 780.047C536.365 781.918 534.218 784.372 532.753 787.216C532.652 787.41 532.555 787.606 532.462 787.804C532.275 787.736 532.087 787.672 531.897 787.611C530.392 787.128 528.784 786.867 527.116 786.867C525.699 786.867 524.324 787.055 523.019 787.409C522.612 786.377 522.388 785.247 522.388 784.059Z" fill="url(#paint11_linear_0_1)" id="svg_341" class=""/></g></svg>