<svg xmlns="http://www.w3.org/2000/svg" width="70.66666759385001" height="64.00000079472852" fill="none" style=""><rect id="backgroundrect" width="100%" height="100%" x="0" y="0" fill="none" stroke="none" class="selected" style=""/>
























































































































































<defs>
<linearGradient id="paint0_linear_0_1" x1="-0.06654699891805649" y1="-0.015409188345074654" x2="1.3457750082015991" y2="3.978269577026367">
<stop stop-color="#09C6F9"/>
<stop offset="1" stop-color="#045DE9"/>
</linearGradient>
<linearGradient id="paint1_linear_0_1" x1="-1.1734251976013184" y1="-0.007460176013410091" x2="0.1507825255393982" y2="1.9260320663452148">
<stop stop-color="#09C6F9"/>
<stop offset="1" stop-color="#045DE9"/>
</linearGradient>
<linearGradient id="paint2_linear_0_1" x1="-1.2515062093734741" y1="-2.3473527431488037" x2="0.1608157604932785" y2="1.6463258266448975">
<stop stop-color="#09C6F9"/>
<stop offset="1" stop-color="#045DE9"/>
</linearGradient>
<linearGradient id="paint3_linear_0_1" x1="-0.000005527320354303811" y1="-0.6205812096595764" x2="1.3242021799087524" y2="1.312911033630371">
<stop stop-color="#09C6F9"/>
<stop offset="1" stop-color="#045DE9"/>
</linearGradient>
<linearGradient id="paint4_linear_0_1" x1="0.000011910007742699236" y1="-0.010817265138030052" x2="1.4266819953918457" y2="2.7958357334136963">
<stop stop-color="#09C6F9"/>
<stop offset="1" stop-color="#045DE9"/>
</linearGradient>
<linearGradient id="paint5_linear_0_1" x1="0.000011910007742699236" y1="-1.3524439334869385" x2="1.4266819953918457" y2="1.4542089700698853">
<stop stop-color="#09C6F9"/>
<stop offset="1" stop-color="#045DE9"/>
</linearGradient>
<linearGradient id="paint6_linear_0_1" x1="-1.3416147232055664" y1="-0.010817265138030052" x2="0.08505532145500183" y2="2.7958357334136963">
<stop stop-color="#09C6F9"/>
<stop offset="1" stop-color="#045DE9"/>
</linearGradient>
<linearGradient id="paint7_linear_0_1" x1="-1.3416147232055664" y1="-1.3524439334869385" x2="0.08505532145500183" y2="1.4542089700698853">
<stop stop-color="#09C6F9"/>
<stop offset="1" stop-color="#045DE9"/>
</linearGradient>
<linearGradient id="paint8_linear_0_1" x1="0.0000050862113312177826" y1="-0.004626683425158262" x2="0.8736623525619507" y2="1.0595905780792236">
<stop stop-color="#09C6F9"/>
<stop offset="1" stop-color="#045DE9"/>
</linearGradient>
<linearGradient id="paint9_linear_0_1" x1="0.0000050862113312177826" y1="-0.004619551356881857" x2="0.6092696189880371" y2="1.1939715147018433">
<stop stop-color="#09C6F9"/>
<stop offset="1" stop-color="#045DE9"/>
</linearGradient>
<linearGradient id="paint10_linear_0_1" x1="0" y1="-0.004622395616024733" x2="0.3765502870082855" y2="1.3122884035110474">
<stop stop-color="#09C6F9"/>
<stop offset="1" stop-color="#045DE9"/>
</linearGradient>
<linearGradient id="paint11_linear_0_1" x1="0" y1="-0.004622395616024733" x2="0.3765502870082855" y2="1.3122884035110474">
<stop stop-color="#09C6F9"/>
<stop offset="1" stop-color="#045DE9"/>
</linearGradient>
<linearGradient id="paint12_linear_0_1" x1="0" y1="-0.0046253204345703125" x2="0.6092815399169922" y2="1.1939678192138672">
<stop stop-color="#09C6F9"/>
<stop offset="1" stop-color="#045DE9"/>
</linearGradient>
<linearGradient id="paint13_linear_0_1" x1="0" y1="-0.0046253204345703125" x2="0.6092815399169922" y2="1.1939678192138672">
<stop stop-color="#09C6F9"/>
<stop offset="1" stop-color="#045DE9"/>
</linearGradient>
<linearGradient id="paint14_linear_0_1" x1="0" y1="-0.0046253204345703125" x2="0.6092815399169922" y2="1.1939678192138672">
<stop stop-color="#09C6F9"/>
<stop offset="1" stop-color="#045DE9"/>
</linearGradient>
<linearGradient id="paint15_linear_0_1" x1="0" y1="-0.0046253204345703125" x2="0.6092815399169922" y2="1.1939678192138672">
<stop stop-color="#09C6F9"/>
<stop offset="1" stop-color="#045DE9"/>
</linearGradient>
<clipPath id="clip0_0_1">
<rect width="544" height="420" fill="white" y="39" x="0" id="svg_1"/>
</clipPath>
</defs>
<g class="currentLayer" style=""><title>Layer 1</title><path fill-rule="evenodd" clip-rule="evenodd" d="M550.92 905.485L549.522 905.793V907.652C549.522 910.839 547.518 913.55 544.722 914.555V919.56C544.722 920.908 543.647 922 542.322 922C540.996 922 539.921 920.908 539.921 919.56V914.555C537.125 913.55 535.121 910.839 535.121 907.652V905.929C534.913 905.887 534.704 905.843 534.496 905.797L533.08 905.485C526.17 903.963 520.702 898.597 518.962 891.63C517.679 886.496 517.679 881.118 518.962 875.984C520.702 869.018 526.17 863.651 533.08 862.129L534.496 861.817C539.441 860.728 544.559 860.728 549.504 861.817L550.92 862.129C557.83 863.651 563.298 869.018 565.038 875.985C566.321 881.118 566.321 886.496 565.038 891.63C563.298 898.597 557.83 903.963 550.92 905.485ZM544.722 906.508C544.443 906.53 544.165 906.548 543.886 906.563C542.565 906.635 541.242 906.631 539.921 906.552V907.652C539.921 908.999 540.996 910.092 542.322 910.092C543.647 910.092 544.722 908.999 544.722 907.652V906.508ZM544.801 874.116C545.629 874.789 545.764 876.018 545.101 876.859L541.196 881.821H546.802C547.54 881.821 548.213 882.251 548.533 882.928C548.852 883.604 548.762 884.407 548.301 884.993L541.901 893.126C541.238 893.968 540.03 894.104 539.202 893.431C538.374 892.757 538.24 891.529 538.902 890.687L542.807 885.725H537.201C536.463 885.725 535.79 885.295 535.471 884.619C535.151 883.943 535.241 883.14 535.702 882.554L542.102 874.421C542.765 873.579 543.973 873.442 544.801 874.116Z" fill="#FCA311" id="svg_334" class=""/><path fill-rule="evenodd" clip-rule="evenodd" d="M550.92 905.485L549.522 905.793V907.652C549.522 910.839 547.518 913.55 544.722 914.555V919.56C544.722 920.908 543.647 922 542.322 922C540.996 922 539.921 920.908 539.921 919.56V914.555C537.125 913.55 535.121 910.839 535.121 907.652V905.929C534.913 905.887 534.704 905.843 534.496 905.797L533.08 905.485C526.17 903.963 520.702 898.597 518.962 891.63C517.679 886.496 517.679 881.118 518.962 875.984C520.702 869.018 526.17 863.651 533.08 862.129L534.496 861.817C539.441 860.728 544.559 860.728 549.504 861.817L550.92 862.129C557.83 863.651 563.298 869.018 565.038 875.985C566.321 881.118 566.321 886.496 565.038 891.63C563.298 898.597 557.83 903.963 550.92 905.485ZM544.722 906.508C544.443 906.53 544.165 906.548 543.886 906.563C542.565 906.635 541.242 906.631 539.921 906.552V907.652C539.921 908.999 540.996 910.092 542.322 910.092C543.647 910.092 544.722 908.999 544.722 907.652V906.508ZM544.801 874.116C545.629 874.789 545.764 876.018 545.101 876.859L541.196 881.821H546.802C547.54 881.821 548.213 882.251 548.533 882.928C548.852 883.604 548.762 884.407 548.301 884.993L541.901 893.126C541.238 893.968 540.03 894.104 539.202 893.431C538.374 892.757 538.24 891.529 538.902 890.687L542.807 885.725H537.201C536.463 885.725 535.79 885.295 535.471 884.619C535.151 883.943 535.241 883.14 535.702 882.554L542.102 874.421C542.765 873.579 543.973 873.442 544.801 874.116Z" fill="url(#paint8_linear_0_1)" id="svg_335" class=""/><path fill-rule="evenodd" clip-rule="evenodd" d="M29.97892283370784,6.7429135399473985 C35.91252362050155,5.30758962079907 42.08756843163314,5.30758962079907 48.02116921842682,6.7429135399473985 C56.58901542169908,8.813159977704979 63.27997600181667,15.708113391438356 65.28897250621291,24.537174588292068 C66.68183119378469,30.651677956045432 66.68183119378469,37.01498645123907 65.28897250621291,43.12948981899245 C63.27997600181667,51.958551015846176 56.58901542169908,58.85350442957955 48.02116921842682,60.92375086733713 C42.08756843163314,62.359074786485444 35.91252362050155,62.359074786485444 29.97892283370784,60.92375086733713 C21.411076630435616,58.85350442957955 14.720116050317975,51.958551015846176 12.711119545921795,43.12948981899245 C11.318260858349994,37.01498645123907 11.318260858349994,30.651677956045432 12.711119545921795,24.537174588292068 C14.720116050317975,15.708113391438356 21.411076630435616,8.813159977704979 29.97892283370784,6.7429135399473985 zM43.5248437085877,27.613204017636043 C44.474675389237696,27.221218581008387 45.41653486153676,28.191793299843713 45.037285521421204,29.170583282320997 L42.66726186742549,35.27569777734074 C42.25384592009218,36.34133483260359 41.43384734686924,37.185159769535446 40.399738035082656,37.61235347891401 L34.475248343546994,40.053460389648485 C33.526555549804264,40.44544582627611 32.583557190597936,39.474871107440805 32.96394541762087,38.49608112496352 L35.333969071616444,32.390966629943776 C35.74738501894974,31.32532957468091 36.56624470526546,30.481504637749072 37.601492903959425,30.054310928370487 L43.5248437085877,27.613204017636043 zM48.27627988565167,30.506150428674708 C49.79555501992868,26.592164107857634 46.026978243824864,22.70986523251636 42.22992929503991,24.274286151751493 L36.30543960350425,26.71656667157776 C34.38413739096663,27.508752808474725 32.86258448287516,29.076694554984996 32.093835820478745,31.056573092681738 L29.724951053390225,37.16051397860981 C28.205675919113386,41.074500299426866 31.974252695217046,44.95679917476815 35.77130164400201,43.392378255533 L41.69579133553767,40.95009773570676 C43.61595466116808,40.15791159880978 45.13864645616676,38.58996985229952 45.90625623165596,36.61009131460277 L48.27627988565167,30.506150428674708 z" fill="url(#paint9_linear_0_1)" id="svg_337" class=""/><path fill-rule="evenodd" clip-rule="evenodd" d="M652.147 771C657.154 771 661.448 773.854 663.604 777.975C666.25 776.793 669.197 776.134 672.302 776.134C683.701 776.134 693 785.027 693 796.067C693 807.107 683.7 816 672.302 816L648.116 816C639.8 816 633 809.51 633 801.433C633 796.181 635.881 791.597 640.175 789.037C639.547 787.5 639.202 785.818 639.202 784.059C639.202 776.92 644.924 771 652.147 771ZM643.388 784.059C643.388 779.033 647.383 775.091 652.147 775.091C655.54 775.091 658.534 777.08 659.985 780.047C657.365 781.918 655.218 784.372 653.753 787.216C653.652 787.41 653.555 787.606 653.462 787.804C653.275 787.736 653.087 787.672 652.897 787.611C651.392 787.128 649.784 786.867 648.116 786.867C646.699 786.867 645.324 787.055 644.019 787.409C643.612 786.377 643.388 785.247 643.388 784.059Z" fill="#FCA311" id="svg_338" class=""/><path fill-rule="evenodd" clip-rule="evenodd" d="M531.147 771C536.154 771 540.448 773.854 542.604 777.975C545.25 776.793 548.197 776.134 551.302 776.134C562.701 776.134 572 785.027 572 796.067C572 807.107 562.7 816 551.302 816L527.116 816C518.8 816 512 809.51 512 801.433C512 796.181 514.881 791.597 519.175 789.037C518.547 787.5 518.202 785.818 518.202 784.059C518.202 776.92 523.924 771 531.147 771ZM522.388 784.059C522.388 779.033 526.383 775.091 531.147 775.091C534.54 775.091 537.534 777.08 538.985 780.047C536.365 781.918 534.218 784.372 532.753 787.216C532.652 787.41 532.555 787.606 532.462 787.804C532.275 787.736 532.087 787.672 531.897 787.611C530.392 787.128 528.784 786.867 527.116 786.867C525.699 786.867 524.324 787.055 523.019 787.409C522.612 786.377 522.388 785.247 522.388 784.059Z" fill="#FCA311" id="svg_340" class=""/><path fill-rule="evenodd" clip-rule="evenodd" d="M531.147 771C536.154 771 540.448 773.854 542.604 777.975C545.25 776.793 548.197 776.134 551.302 776.134C562.701 776.134 572 785.027 572 796.067C572 807.107 562.7 816 551.302 816L527.116 816C518.8 816 512 809.51 512 801.433C512 796.181 514.881 791.597 519.175 789.037C518.547 787.5 518.202 785.818 518.202 784.059C518.202 776.92 523.924 771 531.147 771ZM522.388 784.059C522.388 779.033 526.383 775.091 531.147 775.091C534.54 775.091 537.534 777.08 538.985 780.047C536.365 781.918 534.218 784.372 532.753 787.216C532.652 787.41 532.555 787.606 532.462 787.804C532.275 787.736 532.087 787.672 531.897 787.611C530.392 787.128 528.784 786.867 527.116 786.867C525.699 786.867 524.324 787.055 523.019 787.409C522.612 786.377 522.388 785.247 522.388 784.059Z" fill="url(#paint11_linear_0_1)" id="svg_341" class=""/></g></svg>